<svg width="280" height="168" viewBox="0 0 280 168" fill="none" xmlns="http://www.w3.org/2000/svg">
<path d="M166.473 101.263H168.731V101.449H167.82V105.227H167.38V101.449H166.473V101.263Z" fill="#00B2E9"/>
<path d="M168.091 105.498H167.113V101.72H166.206V100.995H169.002V101.72H168.091V105.498Z" fill="#00B2E9"/>
<path d="M176.218 105.227H173.886V101.263H176.144V101.449H174.314V103.108H176.053V103.305H174.314V105.037H176.218V105.223V105.227Z" fill="#00B2E9"/>
<path d="M176.484 105.498H173.618V100.995H176.415V101.72H174.581V102.84H176.323V103.576H174.581V104.773H176.484V105.498Z" fill="#00B2E9"/>
<path d="M181.309 103.258C181.309 102.925 181.364 102.628 181.474 102.364C181.583 102.101 181.733 101.881 181.92 101.698C182.107 101.515 182.316 101.38 182.546 101.288C182.777 101.197 183.007 101.149 183.242 101.149C183.461 101.149 183.666 101.182 183.849 101.244C184.032 101.307 184.197 101.405 184.34 101.537C184.483 101.669 184.596 101.834 184.68 102.024L184.464 102.141C184.402 101.951 184.307 101.793 184.175 101.669C184.043 101.544 183.897 101.457 183.739 101.398C183.582 101.34 183.414 101.314 183.238 101.314C183.044 101.314 182.861 101.354 182.689 101.435C182.517 101.515 182.363 101.64 182.228 101.804C182.092 101.969 181.986 102.174 181.909 102.419C181.832 102.665 181.796 102.943 181.796 103.254C181.796 103.58 181.843 103.862 181.927 104.1C182.015 104.338 182.132 104.535 182.279 104.693C182.425 104.85 182.586 104.964 182.755 105.033C182.923 105.103 183.099 105.136 183.278 105.136C183.513 105.136 183.739 105.077 183.966 104.964C184.19 104.846 184.369 104.627 184.494 104.305L184.728 104.444C184.662 104.59 184.563 104.729 184.439 104.865C184.314 105 184.149 105.11 183.944 105.198C183.739 105.286 183.505 105.33 183.238 105.33C182.971 105.33 182.718 105.278 182.48 105.172C182.242 105.066 182.034 104.92 181.862 104.729C181.686 104.539 181.55 104.319 181.452 104.063C181.353 103.807 181.305 103.536 181.305 103.25L181.309 103.258Z" fill="#00B2E9"/>
<path d="M183.242 105.608C182.938 105.608 182.645 105.546 182.374 105.425C182.104 105.304 181.866 105.136 181.668 104.92C181.47 104.704 181.313 104.451 181.207 104.166C181.101 103.88 181.042 103.573 181.042 103.258C181.042 102.892 181.104 102.555 181.229 102.262C181.353 101.965 181.525 101.713 181.738 101.508C181.95 101.303 182.188 101.146 182.448 101.043C182.953 100.842 183.502 100.845 183.941 100.995C184.161 101.069 184.359 101.189 184.531 101.347C184.699 101.504 184.834 101.698 184.933 101.922L185.032 102.149L184.318 102.537L184.219 102.229C184.172 102.079 184.099 101.962 184 101.867C183.897 101.771 183.784 101.698 183.659 101.654C183.385 101.559 183.074 101.556 182.814 101.68C182.678 101.746 182.557 101.841 182.444 101.976C182.331 102.112 182.243 102.288 182.173 102.5C182.104 102.72 182.071 102.972 182.071 103.254C182.071 103.547 182.111 103.799 182.188 104.008C182.261 104.209 182.36 104.378 182.481 104.51C182.601 104.638 182.73 104.729 182.861 104.788C183.18 104.92 183.517 104.898 183.846 104.729C184.011 104.645 184.146 104.469 184.249 104.213L184.366 103.917L185.076 104.345L184.974 104.565C184.897 104.733 184.783 104.898 184.637 105.055C184.487 105.216 184.293 105.348 184.055 105.454C183.817 105.557 183.546 105.608 183.242 105.608Z" fill="#00B2E9"/>
<path d="M192.533 103.309H190.391V105.231H189.963V101.266H190.391V103.115H192.533V101.266H192.961V105.231H192.533V103.309Z" fill="#00B2E9"/>
<path d="M193.229 105.498H192.262V103.576H190.659V105.498H189.692V100.995H190.659V102.84H192.262V100.995H193.229V105.498Z" fill="#00B2E9"/>
<path d="M198.54 101.263H198.913L201.238 104.312H201.249V101.263H201.498V105.337H201.487L198.789 101.83V105.227H198.536V101.263H198.54Z" fill="#00B2E9"/>
<path d="M201.768 105.608H201.369L201.278 105.502L199.059 102.621V105.498H198.272V100.995H199.049L200.981 103.532V100.995H201.768V105.608Z" fill="#00B2E9"/>
<path d="M206.857 103.272C206.857 102.994 206.904 102.727 206.996 102.471C207.087 102.214 207.219 101.987 207.384 101.79C207.549 101.592 207.754 101.435 207.991 101.325C208.229 101.215 208.486 101.156 208.76 101.156C209.035 101.156 209.276 101.215 209.507 101.329C209.738 101.442 209.935 101.599 210.104 101.797C210.272 101.995 210.404 102.222 210.495 102.474C210.587 102.727 210.634 102.99 210.634 103.265C210.634 103.587 210.576 103.88 210.466 104.144C210.356 104.407 210.21 104.627 210.03 104.802C209.847 104.982 209.646 105.114 209.426 105.205C209.207 105.297 208.984 105.341 208.76 105.341C208.401 105.341 208.076 105.245 207.783 105.059C207.494 104.872 207.267 104.619 207.102 104.305C206.937 103.99 206.857 103.646 206.853 103.276L206.857 103.272ZM207.347 103.258C207.347 103.576 207.398 103.884 207.501 104.173C207.603 104.462 207.765 104.704 207.977 104.89C208.189 105.073 208.449 105.169 208.76 105.169C208.951 105.169 209.134 105.117 209.309 105.018C209.485 104.92 209.639 104.784 209.763 104.616C209.888 104.433 209.983 104.231 210.045 104.004C210.111 103.777 210.14 103.525 210.14 103.247C210.133 103.042 210.118 102.866 210.1 102.723C210.082 102.58 210.045 102.438 209.987 102.299C209.91 102.116 209.814 101.951 209.694 101.801C209.573 101.651 209.43 101.537 209.269 101.449C209.108 101.361 208.936 101.318 208.757 101.318C208.438 101.318 208.175 101.416 207.962 101.618C207.75 101.815 207.592 102.068 207.494 102.368C207.395 102.668 207.344 102.965 207.344 103.261L207.347 103.258Z" fill="#00B2E9"/>
<path d="M208.76 105.608C208.346 105.608 207.973 105.498 207.64 105.282C207.31 105.07 207.051 104.781 206.868 104.425C206.685 104.074 206.593 103.686 206.589 103.272C206.589 102.961 206.641 102.661 206.743 102.375C206.846 102.09 206.996 101.834 207.179 101.61C207.369 101.383 207.603 101.204 207.874 101.076C208.412 100.82 209.082 100.812 209.62 101.076C209.884 101.204 210.111 101.387 210.305 101.61C210.492 101.83 210.638 102.086 210.744 102.368C210.847 102.65 210.898 102.947 210.898 103.254C210.898 103.613 210.832 103.942 210.711 104.235C210.587 104.528 210.422 104.781 210.213 104.986C210.008 105.187 209.774 105.341 209.525 105.447C209.273 105.549 209.013 105.604 208.756 105.604L208.76 105.608ZM208.76 101.585C208.511 101.585 208.31 101.658 208.149 101.812C207.969 101.98 207.838 102.189 207.753 102.449C207.662 102.72 207.618 102.99 207.618 103.258C207.618 103.543 207.666 103.821 207.757 104.085C207.845 104.334 207.977 104.532 208.156 104.689C208.416 104.916 208.808 104.997 209.181 104.784C209.324 104.704 209.448 104.594 209.551 104.455C209.653 104.305 209.737 104.125 209.792 103.928C209.851 103.726 209.877 103.496 209.877 103.239C209.869 103.053 209.855 102.888 209.84 102.753C209.825 102.632 209.792 102.511 209.745 102.394C209.683 102.24 209.595 102.094 209.492 101.969C209.393 101.848 209.28 101.753 209.148 101.684C209.024 101.618 208.899 101.585 208.764 101.585H208.76Z" fill="#00B2E9"/>
<path d="M216.02 101.263H216.437L216.451 105.04H217.919V105.227H216.02V101.263Z" fill="#00B2E9"/>
<path d="M218.19 105.498H215.752V100.995H216.708L216.723 104.773H218.19V105.498Z" fill="#00B2E9"/>
<path d="M222.821 103.272C222.821 102.994 222.869 102.727 222.96 102.471C223.052 102.214 223.183 101.987 223.348 101.79C223.513 101.592 223.718 101.435 223.956 101.325C224.194 101.215 224.45 101.156 224.725 101.156C224.999 101.156 225.241 101.215 225.471 101.329C225.702 101.442 225.9 101.599 226.068 101.797C226.236 101.995 226.368 102.222 226.46 102.474C226.551 102.727 226.599 102.99 226.599 103.265C226.599 103.587 226.54 103.88 226.43 104.144C226.321 104.407 226.174 104.627 225.995 104.802C225.812 104.982 225.61 105.114 225.391 105.205C225.171 105.297 224.948 105.341 224.725 105.341C224.366 105.341 224.04 105.245 223.747 105.059C223.458 104.872 223.231 104.619 223.066 104.305C222.902 103.99 222.821 103.646 222.817 103.276L222.821 103.272ZM223.312 103.258C223.312 103.576 223.363 103.884 223.465 104.173C223.568 104.462 223.729 104.704 223.941 104.89C224.154 105.073 224.413 105.169 224.725 105.169C224.915 105.169 225.098 105.117 225.274 105.018C225.449 104.92 225.603 104.784 225.728 104.616C225.852 104.433 225.947 104.231 226.009 104.004C226.075 103.777 226.105 103.525 226.105 103.247C226.097 103.042 226.083 102.866 226.064 102.723C226.046 102.58 226.009 102.438 225.951 102.299C225.874 102.116 225.779 101.951 225.658 101.801C225.537 101.651 225.394 101.537 225.233 101.449C225.072 101.361 224.9 101.318 224.721 101.318C224.402 101.318 224.139 101.416 223.927 101.618C223.714 101.815 223.557 102.068 223.458 102.368C223.359 102.668 223.308 102.965 223.308 103.261L223.312 103.258Z" fill="#00B2E9"/>
<path d="M224.724 105.608C224.311 105.608 223.937 105.498 223.604 105.282C223.275 105.07 223.015 104.781 222.832 104.425C222.649 104.074 222.557 103.686 222.554 103.272C222.554 102.961 222.605 102.661 222.707 102.375C222.81 102.09 222.956 101.834 223.143 101.61C223.333 101.383 223.568 101.204 223.839 101.076C224.38 100.82 225.047 100.812 225.588 101.076C225.852 101.204 226.079 101.387 226.273 101.61C226.46 101.83 226.606 102.086 226.712 102.368C226.815 102.65 226.866 102.947 226.866 103.254C226.866 103.613 226.8 103.942 226.679 104.235C226.558 104.528 226.39 104.781 226.181 104.986C225.976 105.187 225.742 105.341 225.493 105.447C225.241 105.549 224.981 105.604 224.724 105.604V105.608ZM224.724 101.585C224.476 101.585 224.274 101.658 224.113 101.812C223.934 101.98 223.802 102.189 223.714 102.449C223.626 102.72 223.579 102.99 223.579 103.258C223.579 103.543 223.626 103.821 223.718 104.085C223.806 104.334 223.937 104.532 224.117 104.689C224.377 104.916 224.768 104.997 225.142 104.784C225.285 104.704 225.409 104.594 225.511 104.455C225.614 104.305 225.698 104.125 225.753 103.928C225.812 103.726 225.841 103.496 225.841 103.239C225.834 103.053 225.819 102.888 225.801 102.753C225.786 102.632 225.753 102.511 225.706 102.394C225.64 102.24 225.555 102.094 225.453 101.969C225.354 101.848 225.241 101.753 225.109 101.684C224.984 101.618 224.86 101.585 224.724 101.585Z" fill="#00B2E9"/>
<path d="M231.727 103.258C231.727 102.925 231.782 102.628 231.892 102.364C232.002 102.101 232.152 101.881 232.339 101.698C232.525 101.515 232.734 101.38 232.965 101.288C233.195 101.197 233.426 101.149 233.66 101.149C233.88 101.149 234.085 101.182 234.268 101.244C234.451 101.307 234.616 101.405 234.758 101.537C234.901 101.669 235.015 101.834 235.099 102.024L234.883 102.141C234.821 101.951 234.725 101.793 234.594 101.669C234.462 101.544 234.315 101.457 234.158 101.398C234.001 101.34 233.832 101.314 233.656 101.314C233.462 101.314 233.279 101.354 233.107 101.435C232.935 101.515 232.782 101.64 232.646 101.804C232.511 101.969 232.405 102.174 232.328 102.419C232.251 102.665 232.214 102.943 232.214 103.254C232.214 103.58 232.258 103.862 232.346 104.107C232.43 104.352 232.547 104.55 232.69 104.711C232.833 104.868 232.994 104.985 233.162 105.059C233.334 105.132 233.506 105.169 233.682 105.169C233.858 105.169 234.048 105.128 234.253 105.051C234.458 104.975 234.638 104.857 234.795 104.704V103.602H235.187V104.682C235.15 104.733 235.084 104.795 234.993 104.868C234.901 104.942 234.784 105.015 234.641 105.088C234.498 105.161 234.345 105.223 234.18 105.271C234.015 105.319 233.839 105.341 233.656 105.341C233.382 105.337 233.129 105.282 232.895 105.18C232.661 105.077 232.456 104.931 232.28 104.74C232.104 104.55 231.969 104.327 231.87 104.074C231.771 103.821 231.724 103.551 231.724 103.261L231.727 103.258Z" fill="#00B2E9"/>
<path d="M233.66 105.608C233.349 105.604 233.056 105.542 232.789 105.425C232.518 105.304 232.283 105.136 232.082 104.92C231.884 104.704 231.731 104.451 231.621 104.169C231.511 103.887 231.456 103.58 231.456 103.261C231.456 102.895 231.518 102.559 231.643 102.266C231.767 101.969 231.939 101.717 232.152 101.512C232.364 101.307 232.602 101.149 232.862 101.047C233.367 100.845 233.916 100.849 234.352 100.999C234.571 101.072 234.769 101.193 234.941 101.351C235.109 101.508 235.245 101.702 235.344 101.925L235.442 102.152L234.725 102.54L234.626 102.233C234.579 102.083 234.505 101.965 234.407 101.87C234.304 101.775 234.191 101.702 234.066 101.658C233.792 101.563 233.48 101.559 233.22 101.684C233.085 101.75 232.964 101.845 232.851 101.98C232.737 102.116 232.649 102.291 232.58 102.504C232.51 102.723 232.477 102.976 232.477 103.258C232.477 103.551 232.518 103.807 232.595 104.019C232.668 104.228 232.763 104.396 232.884 104.532C233.001 104.66 233.129 104.755 233.264 104.81C233.543 104.927 233.814 104.931 234.154 104.799C234.289 104.748 234.41 104.674 234.524 104.583V103.331H235.453V104.766L235.402 104.835C235.351 104.909 235.274 104.982 235.161 105.073C235.058 105.154 234.926 105.238 234.765 105.322C234.608 105.406 234.432 105.472 234.253 105.524C234.062 105.579 233.861 105.604 233.656 105.604L233.66 105.608Z" fill="#00B2E9"/>
<path d="M240.103 101.263H240.593L241.882 102.979L243.126 101.263H243.313L241.98 103.184V105.227H241.541V103.232L240.103 101.263Z" fill="#00B2E9"/>
<path d="M242.252 105.498H241.274V103.32L239.576 100.995H240.729L241.878 102.529L242.991 100.995H243.829L242.252 103.269V105.498Z" fill="#00B2E9"/>
<path d="M133 89.1899L143.986 61.995H144.066L154.85 89.1899H151.922L148.733 80.9754H138.107L134.757 89.1899H133.004H133ZM143.389 67.3396L138.604 79.7198H148.074L143.389 67.3396Z" fill="#1D2041"/>
<path d="M158.002 71.5456H160.616V83.428C160.616 84.5336 160.813 85.467 161.205 86.2284C161.597 86.9898 162.098 87.5536 162.71 87.9123C163.321 88.2711 163.987 88.4504 164.701 88.4504C167.666 88.4504 169.149 86.7226 169.149 83.267V71.5456H170.247V83.428C170.247 85.2877 169.767 86.7812 168.812 87.905C167.853 89.0288 166.319 89.5889 164.207 89.5889C163.13 89.5889 162.117 89.3546 161.165 88.8897C160.213 88.4248 159.452 87.7586 158.873 86.8947C158.295 86.0308 158.006 85.0131 158.006 83.8454V71.5456H158.002Z" fill="#1D2041"/>
<path d="M185.095 89.1899L179.095 80.009C179.999 80.009 180.629 80.0017 180.98 79.9871C181.331 79.9724 181.643 79.9395 181.906 79.8882C182.17 79.837 182.543 79.7271 183.023 79.5697C183.821 79.2769 184.337 78.8266 184.578 78.2153C184.82 77.604 184.937 76.9414 184.937 76.2239C184.871 73.8884 183.334 72.7207 180.332 72.7207H178.158V89.1899H175.507V71.5456H180.171C184.996 71.5456 187.456 73.1929 187.547 76.4911C187.547 77.9261 187.06 78.995 186.09 79.7015C185.12 80.408 183.93 80.807 182.521 80.8986L187.964 89.1935H185.095V89.1899Z" fill="#1D2041"/>
<path d="M189.641 89.1899L194.049 73.6395C194.327 72.6438 194.693 71.9849 195.147 71.6664C195.601 71.3479 196.131 71.1869 196.743 71.1869C197.46 71.2674 198.079 71.919 198.595 73.1417L204.177 89.1899H201.527L199.774 84.1638H192.299L190.882 89.1899H189.645H189.641ZM199.492 83.267L196.501 75.0525C196.421 74.6132 196.303 74.2764 196.142 74.0348C195.93 73.9287 195.762 73.8738 195.645 73.8738C195.483 73.8738 195.326 73.9543 195.165 74.1117C195.044 74.5254 194.986 74.756 194.986 74.8109L192.632 83.2633H199.488L199.492 83.267Z" fill="#1D2041"/>
<path d="M206.11 80.6569C206.15 77.6918 206.923 75.3746 208.435 73.6981C209.943 72.0215 211.934 71.1869 214.405 71.1869C215.708 71.1869 216.847 71.509 217.824 72.1533C218.802 72.7976 219.574 73.6432 220.149 74.6938L219.252 75.4735C218.747 74.3057 218.058 73.4382 217.187 72.8817C216.316 72.3217 215.357 72.0435 214.306 72.0435C212.564 72.0837 211.228 72.7829 210.298 74.1447C209.368 75.5064 208.856 77.593 208.764 80.408C208.764 81.8027 208.929 83.0363 209.262 84.1126C209.595 85.1888 210.045 86.0673 210.616 86.7519C211.187 87.4364 211.813 87.9343 212.491 88.2454C213.168 88.5566 213.86 88.7323 214.563 88.7726C214.603 88.7176 214.636 88.6884 214.661 88.6847C214.687 88.6774 214.709 88.6737 214.72 88.6737C215.756 88.6225 216.686 88.3735 217.509 87.927C218.333 87.4804 219.076 86.5615 219.742 85.1668L220.559 85.8294C219.215 88.3406 217.162 89.5925 214.398 89.5925C212.776 89.5925 211.337 89.1899 210.082 88.3845C208.826 87.5792 207.849 86.492 207.153 85.1156C206.454 83.7392 206.106 82.2566 206.106 80.6606L206.11 80.6569Z" fill="#1D2041"/>
<path d="M223.934 60H226.584V86.3382C226.584 86.9496 226.687 87.4364 226.896 87.7952C227.101 88.1539 227.554 88.3333 228.261 88.3333H229.857V89.1899H226.427C224.765 89.1899 223.934 88.5273 223.934 87.1948V60Z" fill="#1D2041"/>
<path d="M232.767 74.3753C232.767 73.2332 233.027 72.4754 233.543 72.102C234.059 71.7286 234.945 71.5419 236.193 71.5419H243.668V72.4388H237.628C236.91 72.4388 236.405 72.4827 236.112 72.5669C235.82 72.6548 235.626 72.8158 235.523 73.0538C235.424 73.2917 235.373 73.6981 235.373 74.2691V79.5514H242.072V80.408H235.373V86.6091C235.373 87.2863 235.461 87.7439 235.64 87.9745C235.82 88.2052 236.149 88.3223 236.629 88.3223H243.587V89.1789H236.032C234.835 89.1789 233.989 89.0361 233.499 88.7506C233.008 88.4651 232.759 87.8318 232.759 86.847V74.368L232.767 74.3753Z" fill="#1D2041"/>
<path d="M245.663 80.4959C245.663 78.8193 246.011 77.2635 246.71 75.8212C247.409 74.3789 248.398 73.2442 249.682 72.4205C250.964 71.5969 252.417 71.1832 254.039 71.1832C255.195 71.1832 256.305 71.4504 257.37 71.9812C258.431 72.512 259.347 73.2185 260.112 74.0934C260.877 74.972 261.47 75.953 261.898 77.0439C262.326 78.1348 262.535 79.2586 262.535 80.4117C262.52 82.3665 262.132 84.032 261.367 85.4158C260.602 86.7995 259.595 87.8391 258.347 88.5346C257.099 89.2301 255.715 89.5816 254.2 89.5816C252.684 89.5816 251.231 89.1642 249.953 88.3333C248.676 87.5023 247.662 86.3968 246.904 85.0131C246.146 83.6294 245.736 82.1212 245.667 80.4885L245.663 80.4959ZM248.317 80.4959C248.317 81.4916 248.431 82.4836 248.657 83.4646C248.884 84.4494 249.243 85.3425 249.734 86.1479C250.224 86.9532 250.825 87.5755 251.527 88.0221C252.23 88.4687 253.069 88.6884 254.039 88.6884C255.993 88.6884 257.454 87.8391 258.424 86.1369C259.394 84.4347 259.881 82.414 259.881 80.0749C259.881 78.8266 259.676 77.582 259.262 76.3484C258.849 75.1111 258.212 74.0861 257.348 73.2661C256.484 72.4498 255.408 72.0398 254.119 72.0398C252.724 72.0398 251.586 72.4718 250.711 73.3357C249.833 74.1996 249.214 75.2648 248.859 76.5351C248.5 77.8053 248.321 79.1231 248.321 80.4922L248.317 80.4959Z" fill="#1D2041"/>
<path d="M266.159 89.1899V73.4785C266.159 72.8525 266.353 72.3766 266.738 72.0435C267.122 71.7104 267.627 71.5456 268.253 71.5456C269.238 71.5456 270.201 72.2704 271.145 73.7201L277.924 85.0241H278.005V71.5456H279.023V88.6115C279.023 89.2631 278.803 89.5889 278.364 89.5889C278.166 89.5889 277.976 89.4827 277.796 89.2704C277.617 89.0581 277.463 88.8275 277.339 88.5822C277.211 88.337 277.082 88.088 276.951 87.8355L268.736 74.5364C268.418 73.9653 268.198 73.6395 268.077 73.559C268.063 73.559 268.011 73.548 267.92 73.5187C267.828 73.4931 267.733 73.4785 267.642 73.4785C267.364 73.4785 267.224 73.6908 267.224 74.1154V89.1862H266.166L266.159 89.1899Z" fill="#1D2041"/>
<path d="M32.906 140.835L31.9497 142.305L32.3541 142.568L32.906 141.721V140.835Z" fill="url(#paint0_radial_793_1689)"/>
<path d="M63.0721 30.724L24.0942 167.24L63.0721 98.0833L104.232 167.329L63.0721 30.724Z" fill="#222B72"/>
<path d="M103.109 165.436L103.654 165.43V165.423L64.1564 69.6313L24.0874 167.24L63.0717 98.0833L103.109 165.436Z" fill="url(#paint1_linear_793_1689)"/>
<g opacity="0.67">
<path style="mix-blend-mode:screen" d="M82.6455 115.498C82.8135 115.432 78.9814 105.421 74.0862 93.1385C69.1911 80.8564 65.0867 70.954 64.9188 71.021C64.7509 71.0879 68.583 81.0988 73.4781 93.3809C78.3732 105.663 82.4776 115.565 82.6455 115.498Z" fill="url(#paint2_radial_793_1689)"/>
<path style="mix-blend-mode:screen" d="M80.7924 110.875C80.7924 110.875 75.3113 100.503 72.6156 93.7381C69.92 86.9733 66.7622 75.6773 66.7622 75.6773C66.7622 75.6773 72.2434 86.0491 74.939 92.8139C77.6347 99.5787 80.7924 110.875 80.7924 110.875Z" fill="url(#paint3_radial_793_1689)"/>
<path style="mix-blend-mode:screen" d="M78.6296 105.458C78.6296 105.458 74.5156 98.4042 72.6543 93.7253C70.7866 89.0464 68.9253 81.0942 68.9253 81.0942C68.9253 81.0942 73.0394 88.1478 74.9007 92.8267C76.7684 97.5056 78.6296 105.458 78.6296 105.458Z" fill="url(#paint4_radial_793_1689)"/>
</g>
<g opacity="0.67">
<path style="mix-blend-mode:screen" d="M55.0775 93.4945C59.9726 81.2124 63.8047 71.2015 63.6368 71.1346C63.4688 71.0677 59.3644 80.97 54.4693 93.2522C49.5742 105.534 45.7421 115.545 45.91 115.612C46.078 115.679 50.1824 105.777 55.0775 93.4945Z" fill="url(#paint5_radial_793_1689)"/>
<path style="mix-blend-mode:screen" d="M47.7578 110.958C47.7578 110.958 53.239 100.586 55.9346 93.8216C58.6303 87.0568 61.7881 75.7607 61.7881 75.7607C61.7881 75.7607 56.3069 86.1325 53.6112 92.8973C50.9156 99.6622 47.7578 110.958 47.7578 110.958Z" fill="url(#paint6_radial_793_1689)"/>
<path style="mix-blend-mode:screen" d="M49.9146 105.541C49.9146 105.541 54.0286 98.4876 55.8899 93.8087C57.7576 89.1299 59.6189 81.1777 59.6189 81.1777C59.6189 81.1777 55.5048 88.2313 53.6435 92.9102C51.7758 97.5891 49.9146 105.541 49.9146 105.541Z" fill="url(#paint7_radial_793_1689)"/>
</g>
<path d="M64.3878 146.92L56.0249 147.613L64.5611 133.807L72.7508 148.344L64.3878 146.92Z" fill="#00B2E9"/>
<path d="M64.3876 52.2893C64.3427 48.4833 64.2914 44.6837 64.1887 40.8777C63.9127 27.2518 63.5083 13.6259 62.7253 1.52588e-05C61.9487 13.6259 61.5379 27.2518 61.262 40.8777C61.1657 44.6837 61.1143 48.4833 61.063 52.2893H64.3812H64.3876Z" fill="#222B72"/>
<path d="M75.3114 47.1354C75.3114 47.1354 72.9816 46.5193 71.8135 46.4872L72.0638 46.0636L76.0238 46.8338L75.305 47.1354H75.3114Z" fill="#00B2E9"/>
<path d="M127.087 96.8446V96.3953L115.175 96.4851C115.175 96.0359 115.156 95.5866 115.143 95.1309L118.339 94.9961L118.32 94.5468L115.124 94.6816C115.104 94.2324 115.079 93.7831 115.047 93.3338L118.23 93.0899L118.198 92.6406L115.015 92.8845C114.976 92.4352 114.938 91.986 114.886 91.5367L118.063 91.1773L118.012 90.728L114.835 91.0874C114.783 90.6382 114.726 90.1953 114.662 89.746L117.826 89.2775L117.762 88.8346L114.604 89.3032C114.533 88.8603 114.463 88.411 114.386 87.9682L119.982 86.9413L119.899 86.4984L117.447 86.9477L114.302 87.5253C114.219 87.0825 114.129 86.6396 114.033 86.1967L117.158 85.51L117.062 85.0735L113.936 85.7603C113.84 85.3239 113.731 84.881 113.622 84.4446L116.722 83.6487L116.613 83.2123L113.519 84.0081C113.404 83.5717 113.282 83.1352 113.16 82.7052L116.228 81.8003L116.099 81.3702L113.031 82.2752C112.903 81.8452 112.768 81.4152 112.627 80.9851L115.663 79.9711L115.522 79.541L112.486 80.5551C112.345 80.1315 112.191 79.7015 112.036 79.2779L123.204 75.1189L123.05 74.6953L111.882 78.8543C111.722 78.4307 111.555 78.0135 111.388 77.5963L114.347 76.3769L114.174 75.9597L111.215 77.1791C111.042 76.7619 110.862 76.3448 110.676 75.9404L113.59 74.6183L113.404 74.2075L110.49 75.5297C110.304 75.1189 110.111 74.7081 109.912 74.3038L112.775 72.8789L112.576 72.4746L109.713 73.8994C109.508 73.4951 109.302 73.0971 109.091 72.6992L111.902 71.1781L111.69 70.7802L108.879 72.3013C108.66 71.9034 108.442 71.5119 108.218 71.1203L110.971 69.5029L113.121 68.2386L112.897 67.8535L107.993 70.7352C107.762 70.3437 107.524 69.9586 107.287 69.58L109.983 67.8663L109.739 67.4876L107.043 69.2013C106.799 68.8226 106.549 68.4439 106.299 68.0717L108.936 66.2617L108.68 65.8895L106.048 67.693C105.792 67.3207 105.528 66.9549 105.265 66.5891L107.833 64.6957L107.563 64.3363L104.989 66.2361C104.72 65.8767 104.444 65.5172 104.168 65.1642L106.671 63.1746L106.388 62.8216L103.885 64.8112C103.603 64.4582 103.314 64.1116 103.025 63.7651L112.094 56.0439L111.805 55.7038L102.736 63.4249C102.441 63.0847 102.14 62.7446 101.838 62.4108L104.2 60.2543L103.898 59.9205L101.536 62.0835C101.228 61.7497 100.92 61.4224 100.606 61.1015L102.891 58.8615L102.576 58.5406L100.291 60.7806C99.9702 60.4597 99.6493 60.1452 99.3284 59.8307L101.536 57.5073L101.209 57.1992L99.0011 59.5226C98.6738 59.2145 98.34 58.9065 98.0062 58.6112L100.137 56.2108L99.8034 55.9091L97.6725 58.3096C97.3323 58.0143 96.9922 57.7191 96.6456 57.4303L100.278 53.0338L99.9317 52.745L98.34 54.6704L96.2926 57.1479C95.946 56.8655 95.593 56.5831 95.2336 56.3071L97.1911 53.7591L96.8317 53.4831L94.8741 56.0311C94.5147 55.7551 94.1553 55.492 93.7895 55.2288L95.6636 52.6102L95.2978 52.347L93.4236 54.9657C93.0578 54.7025 92.6855 54.4522 92.3069 54.2019L94.0847 51.5191L93.7124 51.2688L91.9282 53.9516C91.5495 53.7013 91.1708 53.4638 90.7857 53.2263L92.4737 50.4793L92.0886 50.2419L90.4006 52.9824C90.0155 52.7514 89.6241 52.5203 89.2325 52.2957L95.1245 41.9174L94.7329 41.6928L88.841 52.0775C88.4495 51.8592 88.0516 51.641 87.6536 51.4292L89.1491 48.5731L88.7512 48.3677L87.2621 51.2239C86.8642 51.0185 86.4599 50.8195 86.0491 50.6205L87.4419 47.7131L87.0375 47.5205L85.6448 50.428C85.2404 50.2354 84.8296 50.0493 84.4125 49.8632L85.7025 46.9044L85.2917 46.7247L84.0017 49.6771C83.5909 49.4973 83.1737 49.3241 82.7566 49.1572L83.9439 46.1599L83.5267 45.993L82.3394 48.9903C81.9222 48.8234 81.4986 48.6694 81.075 48.5154L82.994 43.1241L82.5704 42.97L81.736 45.3191L80.6578 48.3549C80.2342 48.2073 79.8042 48.0597 79.3741 47.9249L80.3497 44.857L79.9197 44.7222L78.9441 47.7965C78.5141 47.6617 78.0841 47.5334 77.6476 47.4114L78.5141 44.3114L78.0777 44.1895L77.2112 47.2895C76.7748 47.1675 76.3383 47.052 75.9019 46.9493L76.6592 43.8236L76.2228 43.721L75.4655 46.8466C75.029 46.7439 74.5862 46.6412 74.1433 46.5514L74.7915 43.4L74.3487 43.3102L73.7004 46.4615C73.2576 46.3717 72.8147 46.2882 72.3719 46.2112L74.3551 34.453L73.9122 34.376L71.929 46.1342C71.4861 46.0636 71.0369 45.993 70.594 45.9288L71.0176 42.7518L70.5748 42.694L70.1512 45.8775C69.7019 45.8197 69.259 45.7684 68.8098 45.7234L69.1242 42.5336L68.675 42.4887L68.3605 45.6785C67.9112 45.6336 67.4619 45.6015 67.0126 45.5694L67.2116 42.3731L66.7623 42.3475L66.5634 45.5437C66.1141 45.5181 65.6648 45.4988 65.2091 45.4795L65.299 42.2769L64.8497 42.264L64.7599 45.4603C64.3106 45.4474 63.8613 45.441 63.4056 45.4475L63.3607 39.7545H62.9114L62.9307 42.2512L62.9563 45.4475C62.5071 45.4475 62.0578 45.4667 61.6021 45.4795L61.4673 42.2833L61.018 42.3025L61.1528 45.4988C60.7035 45.518 60.2543 45.5437 59.805 45.5758L59.5611 42.386L59.1118 42.4181L59.3557 45.6015C58.9064 45.64 58.4572 45.6785 58.0079 45.7298L57.6485 42.5528L57.1992 42.6042L57.5586 45.7812C57.1093 45.8325 56.6665 45.8903 56.2172 45.9545L55.7487 42.7903L55.3058 42.8545L55.7744 46.0123C55.3315 46.0829 54.8822 46.1535 54.4394 46.2369L52.2828 34.5236L51.84 34.6071L53.9965 46.3203C53.5536 46.4038 53.1108 46.4936 52.6679 46.5899L51.9812 43.4642L51.5447 43.5605L52.2315 46.6862C51.795 46.7824 51.3522 46.8916 50.9158 47.0007L50.1199 43.9007L49.6834 44.0098L50.4793 47.1033C50.0429 47.2189 49.6064 47.3408 49.1764 47.4628L48.2715 44.3949L47.8414 44.5232L48.7464 47.5911C48.3164 47.7195 47.8864 47.8543 47.4563 47.9955L46.4423 44.9597L46.0186 45.1009L47.0327 48.1367C46.6091 48.2779 46.1791 48.4319 45.7555 48.586L43.7659 43.246L43.3423 43.4L45.3319 48.74C44.9083 48.9005 44.4911 49.0673 44.0739 49.2342L42.8545 46.2754L42.4373 46.4487L43.6567 49.4075C43.2396 49.5808 42.8224 49.7605 42.418 49.9466L41.0959 47.0327L40.6851 47.2189L42.0073 50.1327C41.5965 50.3189 41.1857 50.5114 40.7814 50.7104L39.3565 47.8479L38.9522 48.0468L40.377 50.9094C39.9727 51.1147 39.5748 51.3201 39.1768 51.5319L37.6557 48.7207L37.2578 48.9325L38.7789 51.7437C38.381 51.9619 37.9895 52.1802 37.5979 52.4048L31.5648 42.1356L31.1797 42.3667L37.2064 52.6359C36.8149 52.8669 36.4298 53.1044 36.0512 53.3419L34.3375 50.6462L33.9588 50.8901L35.6725 53.5858C35.2938 53.8296 34.9151 54.08 34.5429 54.3303L32.7329 51.6924L32.3607 51.9491L34.1642 54.587C33.7919 54.8437 33.4261 55.1069 33.0603 55.37L31.1669 52.8027L30.8075 53.0723L32.7073 55.646C32.3478 55.9156 31.9884 56.1916 31.6354 56.4675L29.6458 53.9644L29.2928 54.2468L31.2824 56.7499C30.9294 57.0323 30.5828 57.3212 30.2362 57.61L26.5458 53.2777L26.2056 53.5665L27.823 55.4663L29.8961 57.8988C29.5559 58.194 29.2157 58.4957 28.882 58.7973L26.7255 56.4354L26.3917 56.7371L28.5547 59.099C28.2209 59.4071 27.8936 59.7152 27.5727 60.0296L25.3327 57.7448L25.0118 58.0593L27.2518 60.3441C26.9309 60.6651 26.6164 60.986 26.3019 61.3069L23.9785 59.099L23.6704 59.4263L25.9938 61.6342C25.6857 61.9615 25.3776 62.2953 25.0824 62.629L22.682 60.4982L22.3803 60.8319L24.7808 62.9628C24.4855 63.3029 24.1903 63.6431 23.9015 63.9897L14.7106 56.3969L14.4217 56.7435L23.6126 64.3427C23.3302 64.6893 23.0478 65.0423 22.7718 65.4017L20.2238 63.4441L19.9478 63.8036L22.4959 65.7611C22.2199 66.1205 21.9567 66.48 21.6936 66.8458L19.075 64.9717L18.8118 65.3375L21.4304 67.2116C21.1673 67.5775 20.917 67.9497 20.6667 68.3284L17.9839 66.5506L17.7335 66.9228L20.4164 68.7071C20.166 69.0858 19.9286 69.4644 19.6911 69.8495L16.9441 68.1615L16.7066 68.5466L19.4536 70.2346C19.2226 70.6197 18.9915 71.0112 18.7669 71.4027L13.7928 68.5787L13.5681 68.9702L15.7375 70.2025L18.5422 71.7942C18.324 72.1858 18.1058 72.5837 17.894 72.9816L15.0379 71.4862L14.8325 71.8841L17.6886 73.3731C17.4832 73.7711 17.2843 74.1754 17.0853 74.5862L14.1778 73.1934L13.9853 73.5978L16.8928 74.9905C16.7002 75.3949 16.5141 75.8056 16.328 76.2228L13.3692 74.9328L13.1894 75.3435L16.1418 76.6336C15.9621 77.0444 15.7888 77.4615 15.6219 77.8787L12.6246 76.6914L12.4578 77.1085L15.4551 78.2959C15.2882 78.7131 15.1342 79.1367 14.9801 79.5603L3.72899 75.5617L3.58137 75.9853L14.8261 79.9839C14.6785 80.4075 14.5309 80.8375 14.3961 81.2675L11.3282 80.292L11.1934 80.722L14.2677 81.6976C14.1329 82.1276 14.0046 82.5576 13.8826 82.994L10.7826 82.1276L10.6607 82.564L13.7607 83.4305C13.6387 83.8669 13.5232 84.3034 13.4205 84.7398L10.2948 83.9825L10.1921 84.4189L13.3178 85.1762C13.2151 85.6127 13.1124 86.0555 13.0226 86.4984L9.87123 85.8502L9.78137 86.293L12.9327 86.9413C12.8429 87.3841 12.7594 87.827 12.6824 88.2698L7.05363 87.3199L6.97661 87.7628L9.43478 88.18L12.599 88.7127C12.5284 89.1555 12.4578 89.6048 12.3936 90.0477L9.21657 89.6241L9.1588 90.0733L12.3422 90.4969C12.2845 90.9462 12.2331 91.3891 12.1882 91.8384L8.99835 91.5239L8.95342 91.9731L12.1433 92.2812C12.0983 92.7305 12.0663 93.1798 12.0342 93.629L8.83789 93.4301L8.81222 93.8793L12.0085 94.0783C11.9828 94.5276 11.9636 94.9769 11.9443 95.4326L8.74162 95.3427L8.72879 95.792L11.9251 95.8818C11.9122 96.3311 11.9058 96.7804 11.9122 97.2361L0 97.3259V97.7752L11.9122 97.6854C11.9122 98.1346 11.9315 98.5839 11.9443 99.0396L8.74804 99.1744L8.76729 99.6237L11.9636 99.4889C11.9828 99.9382 12.0085 100.387 12.0406 100.837L8.85715 101.081L8.88924 101.53L12.0727 101.286C12.1112 101.735 12.1497 102.185 12.201 102.634L9.02402 102.993L9.07537 103.443L12.2524 103.083C12.3037 103.532 12.3615 103.975 12.4257 104.424L9.2615 104.893L9.32568 105.336L12.4834 104.867C12.554 105.31 12.6246 105.759 12.7017 106.202L7.10498 107.229L7.18841 107.672L9.64017 107.223L12.7851 106.645C12.8685 107.088 12.9584 107.531 13.0547 107.974L9.92899 108.661L10.0253 109.097L13.1509 108.41C13.2472 108.847 13.3563 109.289 13.4654 109.726L10.3654 110.522L10.4745 110.958L13.5681 110.162C13.6836 110.599 13.8056 111.035 13.9275 111.465L10.8596 112.37L10.988 112.8L14.0559 111.895C14.1843 112.325 14.3191 112.755 14.4603 113.185L11.4244 114.199L11.5656 114.629L14.6015 113.615C14.7427 114.039 14.8967 114.469 15.0507 114.893L3.88303 119.052L4.03707 119.475L15.2048 115.316C15.3652 115.74 15.5321 116.157 15.699 116.574L12.7402 117.794L12.9135 118.211L15.8723 116.991C16.0456 117.409 16.2253 117.826 16.4114 118.23L13.4975 119.552L13.6837 119.963L16.5975 118.641C16.7836 119.052 16.9762 119.462 17.1752 119.86L14.3126 121.285L14.5116 121.69L17.3741 120.265C17.5795 120.669 17.7849 121.067 17.9967 121.465L15.1855 122.986L15.3973 123.384L18.2085 121.863C18.4267 122.261 18.6449 122.652 18.8696 123.044L16.1162 124.661L13.9661 125.926L14.1971 126.317L19.1006 123.435C19.3317 123.827 19.5692 124.212 19.8066 124.591L17.111 126.304L17.3549 126.683L20.0505 124.969C20.2944 125.348 20.5447 125.727 20.795 126.099L18.1572 127.909L18.4139 128.281L21.0518 126.477C21.3085 126.85 21.5716 127.216 21.8348 127.581L19.2675 129.475L19.5371 129.834L22.1108 127.934C22.3803 128.294 22.6563 128.653 22.9323 129.006L20.4292 130.996L20.7116 131.349L23.2147 129.359C23.4971 129.712 23.7859 130.059 24.0748 130.405L15.0058 138.127L15.2946 138.467L24.3571 130.746C24.3571 130.746 24.3636 130.707 24.37 130.681C24.4021 130.521 24.4663 130.38 24.5561 130.264C20.7822 125.842 17.7015 120.701 15.5578 114.944C5.7058 88.4816 19.2162 58.9385 45.6785 49.0802C72.1408 39.2282 101.684 52.7386 111.542 79.2009C118.172 97.0114 114.219 116.215 102.858 129.879C102.878 129.892 102.897 129.898 102.923 129.911C103.102 130.001 103.231 130.11 103.327 130.239L112.415 137.748L112.704 137.401L103.513 129.802C103.795 129.456 104.078 129.103 104.354 128.743L106.902 130.701L107.178 130.341L104.63 128.384C104.906 128.024 105.169 127.665 105.432 127.299L108.051 129.167L108.314 128.801L105.695 126.927C105.958 126.561 106.209 126.189 106.459 125.81L109.142 127.588L109.392 127.216L106.709 125.431C106.96 125.053 107.197 124.674 107.435 124.289L110.182 125.977L110.419 125.592L107.679 123.904C107.91 123.519 108.141 123.127 108.365 122.736L113.339 125.56L113.564 125.168L108.59 122.344C108.808 121.953 109.026 121.555 109.238 121.157L112.094 122.652L112.3 122.254L109.444 120.765C109.649 120.367 109.848 119.963 110.047 119.552L112.954 120.945L113.147 120.541L110.239 119.148C110.432 118.744 110.618 118.333 110.804 117.916L113.763 119.206L113.943 118.795L110.99 117.505C111.17 117.088 111.343 116.677 111.51 116.26L114.507 117.447L114.674 117.03L111.677 115.843C111.844 115.425 111.998 115.002 112.152 114.578L123.397 118.577L123.551 118.153L112.306 114.155C112.454 113.731 112.601 113.301 112.736 112.871L115.804 113.84L115.939 113.41L112.864 112.434C112.999 112.004 113.128 111.574 113.25 111.138L116.35 112.004L116.471 111.574L113.371 110.708C113.493 110.271 113.609 109.835 113.712 109.399L116.837 110.156L116.94 109.72L113.814 108.962C113.917 108.526 114.02 108.083 114.11 107.64L117.261 108.288L117.351 107.845L114.199 107.204C114.289 106.761 114.373 106.318 114.45 105.875L117.614 106.408L120.072 106.825L120.149 106.382L114.527 105.432C114.604 104.989 114.668 104.54 114.732 104.097L117.909 104.521L117.967 104.078L114.783 103.654C114.841 103.205 114.893 102.762 114.938 102.313L118.127 102.627L118.172 102.178L114.982 101.864C115.027 101.414 115.059 100.965 115.092 100.516L118.288 100.715L118.314 100.265L115.117 100.067C115.143 99.6172 115.162 99.168 115.181 98.7123L118.384 98.8021L118.397 98.3529L115.201 98.263C115.214 97.8137 115.22 97.3644 115.213 96.9088L127.126 96.8189L127.087 96.8446Z" fill="#00B2E9"/>
<path d="M64.1564 69.6313L103.654 165.423L63.0717 30.724L24.0874 167.24L64.1564 69.6313Z" fill="#222B72"/>
<defs>
<radialGradient id="paint0_radial_793_1689" cx="0" cy="0" r="1" gradientUnits="userSpaceOnUse" gradientTransform="translate(63.8625 93.3734) rotate(-15.12) scale(67.2183 67.2183)">
<stop offset="0.65" stop-color="#8F8E8E"/>
<stop offset="0.84" stop-color="#818080"/>
<stop offset="1" stop-color="#727172"/>
</radialGradient>
<linearGradient id="paint1_linear_793_1689" x1="63.7905" y1="172.644" x2="65.4528" y2="43.0085" gradientUnits="userSpaceOnUse">
<stop offset="0.22" stop-color="#163579"/>
<stop offset="0.49" stop-color="#1A1D55"/>
</linearGradient>
<radialGradient id="paint2_radial_793_1689" cx="0" cy="0" r="1" gradientUnits="userSpaceOnUse" gradientTransform="translate(52.5725 105.107) rotate(68.27) scale(23.9275 0.330792)">
<stop offset="0.05" stop-color="white"/>
<stop offset="0.09" stop-color="#CDEFFA"/>
<stop offset="0.19" stop-color="#5ECBF0"/>
<stop offset="0.23" stop-color="#32BDED"/>
<stop offset="0.25" stop-color="#30B7E6"/>
<stop offset="0.44" stop-color="#1F7795"/>
<stop offset="0.61" stop-color="#124455"/>
<stop offset="0.75" stop-color="#081F27"/>
<stop offset="0.85" stop-color="#02080A"/>
<stop offset="0.92"/>
</radialGradient>
<radialGradient id="paint3_radial_793_1689" cx="0" cy="0" r="1" gradientUnits="userSpaceOnUse" gradientTransform="translate(72.8851 91.5469) rotate(68.27) scale(16.3464 1.55051)">
<stop stop-color="white"/>
<stop offset="0.02" stop-color="#CDEFFA"/>
<stop offset="0.06" stop-color="#5ECBF0"/>
<stop offset="0.08" stop-color="#32BDED"/>
<stop offset="0.1" stop-color="#2CA7D1"/>
<stop offset="0.15" stop-color="#2384A6"/>
<stop offset="0.19" stop-color="#1A647E"/>
<stop offset="0.25" stop-color="#13495B"/>
<stop offset="0.31" stop-color="#0D323F"/>
<stop offset="0.37" stop-color="#081F27"/>
<stop offset="0.44" stop-color="#041115"/>
<stop offset="0.53" stop-color="#010709"/>
<stop offset="0.65" stop-color="#000102"/>
<stop offset="0.92"/>
</radialGradient>
<radialGradient id="paint4_radial_793_1689" cx="0" cy="0" r="1" gradientUnits="userSpaceOnUse" gradientTransform="translate(71.9838 92.2358) rotate(68.27) scale(11.3155 1.50103)">
<stop stop-color="white"/>
<stop offset="0.04" stop-color="#CDEFFA"/>
<stop offset="0.13" stop-color="#5ECBF0"/>
<stop offset="0.17" stop-color="#32BDED"/>
<stop offset="0.22" stop-color="#2899C0"/>
<stop offset="0.28" stop-color="#1F7593"/>
<stop offset="0.35" stop-color="#16556B"/>
<stop offset="0.41" stop-color="#0F3B4A"/>
<stop offset="0.49" stop-color="#09252F"/>
<stop offset="0.56" stop-color="#05141A"/>
<stop offset="0.65" stop-color="#02090B"/>
<stop offset="0.76" stop-color="#000202"/>
<stop offset="0.92"/>
</radialGradient>
<radialGradient id="paint5_radial_793_1689" cx="0" cy="0" r="1" gradientUnits="userSpaceOnUse" gradientTransform="translate(89.7695 111.078) rotate(111.73) scale(23.9275 0.330792)">
<stop offset="0.05" stop-color="white"/>
<stop offset="0.09" stop-color="#CDEFFA"/>
<stop offset="0.19" stop-color="#5ECBF0"/>
<stop offset="0.23" stop-color="#32BDED"/>
<stop offset="0.25" stop-color="#30B7E6"/>
<stop offset="0.44" stop-color="#1F7795"/>
<stop offset="0.61" stop-color="#124455"/>
<stop offset="0.75" stop-color="#081F27"/>
<stop offset="0.85" stop-color="#02080A"/>
<stop offset="0.92"/>
</radialGradient>
<radialGradient id="paint6_radial_793_1689" cx="0" cy="0" r="1" gradientUnits="userSpaceOnUse" gradientTransform="translate(55.4182 91.5083) rotate(111.73) scale(16.3464 1.55052)">
<stop stop-color="white"/>
<stop offset="0.02" stop-color="#CDEFFA"/>
<stop offset="0.06" stop-color="#5ECBF0"/>
<stop offset="0.08" stop-color="#32BDED"/>
<stop offset="0.1" stop-color="#2CA7D1"/>
<stop offset="0.15" stop-color="#2384A6"/>
<stop offset="0.19" stop-color="#1A647E"/>
<stop offset="0.25" stop-color="#13495B"/>
<stop offset="0.31" stop-color="#0D323F"/>
<stop offset="0.37" stop-color="#081F27"/>
<stop offset="0.44" stop-color="#041115"/>
<stop offset="0.53" stop-color="#010709"/>
<stop offset="0.65" stop-color="#000102"/>
<stop offset="0.92"/>
</radialGradient>
<radialGradient id="paint7_radial_793_1689" cx="0" cy="0" r="1" gradientUnits="userSpaceOnUse" gradientTransform="translate(57.0127 92.4785) rotate(111.73) scale(11.3155 1.50103)">
<stop stop-color="white"/>
<stop offset="0.04" stop-color="#CDEFFA"/>
<stop offset="0.13" stop-color="#5ECBF0"/>
<stop offset="0.17" stop-color="#32BDED"/>
<stop offset="0.22" stop-color="#2899C0"/>
<stop offset="0.28" stop-color="#1F7593"/>
<stop offset="0.35" stop-color="#16556B"/>
<stop offset="0.41" stop-color="#0F3B4A"/>
<stop offset="0.49" stop-color="#09252F"/>
<stop offset="0.56" stop-color="#05141A"/>
<stop offset="0.65" stop-color="#02090B"/>
<stop offset="0.76" stop-color="#000202"/>
<stop offset="0.92"/>
</radialGradient>
</defs>
</svg>
