<svg width="26" height="24" viewBox="0 0 26 24" fill="none" xmlns="http://www.w3.org/2000/svg">
<path d="M4.89844 5.99985C4.89844 5.62265 5.12624 5.27754 5.48756 5.10738C5.84888 4.93722 6.2828 4.97137 6.60879 5.19505L6.61009 5.19595C6.66024 5.23078 6.80611 5.33206 6.89532 5.39484C7.07526 5.52147 7.33135 5.70348 7.63827 5.92665C8.25099 6.37215 9.07157 6.98546 9.8953 7.65181C10.7137 8.31383 11.5597 9.04786 12.2096 9.73314C12.5335 10.0746 12.8313 10.4276 13.054 10.7718C13.2589 11.0885 13.4848 11.5237 13.4848 11.9998C13.4848 12.4759 13.2589 12.9111 13.054 13.2279C12.8313 13.572 12.5335 13.925 12.2096 14.2665C11.5597 14.9518 10.7137 15.6858 9.89532 16.3478C9.07161 17.0142 8.25104 17.6275 7.63832 18.073C7.3314 18.2962 7.07532 18.4782 6.89538 18.6048C6.80706 18.667 6.66263 18.7673 6.61109 18.8031L6.60827 18.805C6.28229 19.0287 5.84894 19.0625 5.48762 18.8923C5.1263 18.7222 4.89849 18.3771 4.89849 17.9999L4.89844 5.99985Z" fill="#1D2041"/>
<path d="M13.1147 6.99073C13.0286 6.93015 12.8938 6.83656 12.8484 6.80501C12.3711 6.47749 12.2691 5.8515 12.6206 5.4068C12.9721 4.9621 13.6446 4.8675 14.1219 5.19501L14.1232 5.19591C14.1736 5.23091 14.3194 5.33213 14.4084 5.3948C14.5883 5.52142 14.8444 5.70344 15.1514 5.9266C15.7641 6.37211 16.5847 6.98542 17.4084 7.65176C18.2268 8.31379 19.0728 9.04781 19.7227 9.73309C20.0466 10.0746 20.3444 10.4275 20.5671 10.7717C20.772 11.0884 20.9979 11.5236 20.9979 11.9998C20.9979 12.4759 20.772 12.9111 20.5671 13.2278C20.3444 13.572 20.0466 13.925 19.7227 14.2665C19.0728 14.9518 18.2268 15.6858 17.4084 16.3478C16.5847 17.0142 15.7641 17.6275 15.1514 18.073C14.8464 18.2948 14.3085 18.6733 14.1253 18.8023L14.1219 18.8046C13.6447 19.1321 12.9722 19.0375 12.6207 18.5929C12.2691 18.1482 12.3711 17.5222 12.8484 17.1946C13.0206 17.0734 13.5339 16.7121 13.8308 16.4963C14.4255 16.0639 15.2148 15.4737 16.0011 14.8376C16.7926 14.1973 17.5565 13.5301 18.1141 12.9422C18.394 12.6471 18.5992 12.3954 18.7287 12.1953C18.7904 12.0999 18.8219 12.036 18.8377 11.9998C18.8219 11.9636 18.7904 11.8996 18.7287 11.8043C18.5992 11.6042 18.394 11.3525 18.1141 11.0574C17.5565 10.4694 16.7926 9.80229 16.0011 9.16197C15.2148 8.52596 14.4255 7.93574 13.8307 7.50331C13.5339 7.2875 13.2869 7.11194 13.1147 6.99073Z" fill="#1D2041"/>
</svg>
