<svg width="24" height="24" viewBox="0 0 24 24" fill="none" xmlns="http://www.w3.org/2000/svg">
<path d="M4.5 6.00006C4.5 5.62286 4.71225 5.27775 5.04889 5.10759C5.38553 4.93743 5.78983 4.97158 6.09355 5.19526L6.09476 5.19616C6.14149 5.23099 6.27739 5.33227 6.36051 5.39505C6.52816 5.52167 6.76676 5.70369 7.05273 5.92685C7.6236 6.37236 8.38814 6.98567 9.15561 7.65201C9.91811 8.31404 10.7064 9.04806 11.3119 9.73335C11.6136 10.0748 11.8911 10.4278 12.0986 10.772C12.2895 11.0887 12.5 11.5239 12.5 12C12.5 12.4761 12.2895 12.9113 12.0986 13.2281C11.8911 13.5722 11.6136 13.9252 11.3119 14.2667C10.7064 14.952 9.91813 15.686 9.15563 16.348C8.38817 17.0144 7.62364 17.6277 7.05277 18.0732C6.76681 18.2964 6.52821 18.4784 6.36057 18.6051C6.27827 18.6672 6.14371 18.7675 6.09569 18.8033L6.09307 18.8052C5.78934 19.0289 5.38559 19.0627 5.04895 18.8925C4.7123 18.7224 4.50005 18.3773 4.50005 18.0001L4.5 6.00006Z" fill="white"/>
<path d="M12.1551 6.99094C12.0749 6.93036 11.9493 6.83677 11.907 6.80521C11.4623 6.4777 11.3673 5.8517 11.6948 5.40701C12.0223 4.96231 12.6489 4.86771 13.0935 5.19522L13.0948 5.19612C13.1417 5.23112 13.2775 5.33234 13.3605 5.39501C13.5282 5.52163 13.7668 5.70364 14.0527 5.92681C14.6236 6.37232 15.3881 6.98563 16.1556 7.65197C16.9181 8.314 17.7064 9.04802 18.3119 9.7333C18.6136 10.0748 18.8911 10.4277 19.0986 10.7719C19.2895 11.0886 19.5 11.5238 19.5 12C19.5 12.4761 19.2895 12.9113 19.0986 13.228C18.8911 13.5722 18.6136 13.9252 18.3119 14.2667C17.7064 14.952 16.9181 15.686 16.1556 16.348C15.3882 17.0144 14.6236 17.6277 14.0528 18.0732C13.7686 18.295 13.2674 18.6736 13.0967 18.8025L13.0936 18.8048C12.6489 19.1323 12.0224 19.0378 11.6949 18.5931C11.3673 18.1484 11.4623 17.5224 11.907 17.1949C12.0675 17.0736 12.5458 16.7123 12.8223 16.4965C13.3764 16.0641 14.1119 15.4739 14.8444 14.8378C15.5819 14.1975 16.2936 13.5303 16.8131 12.9424C17.0739 12.6473 17.2651 12.3956 17.3858 12.1955C17.4433 12.1001 17.4726 12.0362 17.4873 12C17.4726 11.9638 17.4433 11.8998 17.3858 11.8045C17.2651 11.6044 17.0739 11.3527 16.8131 11.0576C16.2936 10.4696 15.5819 9.8025 14.8444 9.16218C14.1119 8.52617 13.3764 7.93595 12.8223 7.50352C12.5457 7.28771 12.3156 7.11215 12.1551 6.99094Z" fill="white"/>
</svg>
