<svg width="209" height="125" viewBox="0 0 209 125" fill="none" xmlns="http://www.w3.org/2000/svg">
<path d="M124.36 75.6461H126.048V75.7856H125.367V78.6077H125.039V75.7856H124.36V75.6461Z" fill="#00B2E9"/>
<path d="M125.568 78.8101H124.838V75.988H124.16V75.4465H126.249V75.988H125.568V78.8101Z" fill="#00B2E9"/>
<path d="M131.639 78.6077H129.897V75.6461H131.585V75.7856H130.217V77.0244H131.516V77.172H130.217V78.4655H131.639V78.605V78.6077Z" fill="#00B2E9"/>
<path d="M131.839 78.8101H129.698V75.4465H131.787V75.988H130.417V76.8248H131.719V77.3744H130.417V78.2686H131.839V78.8101Z" fill="#00B2E9"/>
<path d="M135.443 77.1365C135.443 76.8876 135.484 76.6661 135.566 76.4692C135.648 76.2724 135.76 76.1083 135.9 75.9715C136.039 75.8348 136.195 75.7336 136.367 75.6653C136.54 75.5969 136.712 75.5614 136.887 75.5614C137.051 75.5614 137.204 75.586 137.341 75.6325C137.478 75.6789 137.601 75.7528 137.707 75.8512C137.814 75.9497 137.899 76.0727 137.962 76.2149L137.8 76.3024C137.754 76.1602 137.683 76.0426 137.584 75.9497C137.486 75.8567 137.377 75.7911 137.259 75.7473C137.141 75.7036 137.016 75.6844 136.884 75.6844C136.739 75.6844 136.603 75.7145 136.474 75.7747C136.346 75.8348 136.231 75.9278 136.13 76.0509C136.028 76.1739 135.949 76.327 135.892 76.5103C135.834 76.6935 135.807 76.9013 135.807 77.1338C135.807 77.3771 135.842 77.5877 135.905 77.7654C135.971 77.9432 136.058 78.0909 136.168 78.2084C136.277 78.326 136.398 78.4108 136.523 78.4628C136.649 78.5147 136.78 78.5393 136.914 78.5393C137.089 78.5393 137.259 78.4956 137.428 78.4108C137.595 78.3233 137.729 78.1592 137.822 77.9186L137.997 78.0225C137.948 78.1319 137.874 78.2358 137.781 78.337C137.688 78.4382 137.565 78.5202 137.412 78.5858C137.259 78.6515 137.084 78.6843 136.884 78.6843C136.685 78.6843 136.496 78.646 136.318 78.5667C136.14 78.4874 135.985 78.378 135.856 78.2358C135.725 78.0936 135.624 77.9295 135.55 77.7381C135.476 77.5467 135.44 77.3443 135.44 77.131L135.443 77.1365Z" fill="#00B2E9"/>
<path d="M136.887 78.8921C136.66 78.8921 136.441 78.8456 136.239 78.7554C136.037 78.6651 135.859 78.5394 135.711 78.378C135.564 78.2167 135.446 78.028 135.367 77.8147C135.287 77.6014 135.244 77.3717 135.244 77.1365C135.244 76.863 135.29 76.6115 135.383 76.3927C135.476 76.1712 135.605 75.9825 135.763 75.8294C135.922 75.6762 136.1 75.5586 136.294 75.4821C136.671 75.3317 137.081 75.3344 137.409 75.4465C137.574 75.5012 137.721 75.5915 137.85 75.709C137.976 75.8266 138.077 75.9716 138.151 76.1384L138.224 76.3079L137.691 76.5978L137.617 76.3681C137.582 76.256 137.527 76.1685 137.453 76.0974C137.377 76.0263 137.292 75.9716 137.199 75.9388C136.994 75.8677 136.761 75.8649 136.567 75.9579C136.466 76.0071 136.376 76.0782 136.291 76.1794C136.206 76.2806 136.141 76.4118 136.089 76.5704C136.037 76.7345 136.012 76.9232 136.012 77.1338C136.012 77.3525 136.042 77.5412 136.1 77.6971C136.154 77.8475 136.228 77.9733 136.318 78.0717C136.409 78.1674 136.504 78.2358 136.603 78.2796C136.841 78.378 137.092 78.3616 137.338 78.2358C137.461 78.1729 137.563 78.0417 137.639 77.8502L137.727 77.6287L138.257 77.9487L138.181 78.1128C138.123 78.2385 138.038 78.3616 137.929 78.4792C137.817 78.5995 137.672 78.698 137.494 78.7773C137.316 78.8538 137.114 78.8921 136.887 78.8921Z" fill="#00B2E9"/>
<path d="M143.827 77.1748H142.228V78.6104H141.908V75.6488H142.228V77.0298H143.827V75.6488H144.147V78.6104H143.827V77.1748Z" fill="#00B2E9"/>
<path d="M144.347 78.8101H143.625V77.3744H142.428V78.8101H141.706V75.4465H142.428V76.8248H143.625V75.4465H144.347V78.8101Z" fill="#00B2E9"/>
<path d="M148.315 75.6461H148.594L150.331 77.9241H150.339V75.6461H150.525V78.6897H150.517L148.501 76.07V78.6077H148.312V75.6461H148.315Z" fill="#00B2E9"/>
<path d="M150.727 78.8921H150.429L150.36 78.8128L148.703 76.6607V78.8101H148.115V75.4465H148.695L150.139 77.3416V75.4465H150.727V78.8921Z" fill="#00B2E9"/>
<path d="M154.528 77.1474C154.528 76.9396 154.564 76.74 154.632 76.5485C154.7 76.3571 154.799 76.1876 154.922 76.0399C155.045 75.8922 155.198 75.7747 155.376 75.6926C155.554 75.6106 155.745 75.5668 155.95 75.5668C156.155 75.5668 156.336 75.6106 156.508 75.6953C156.68 75.7801 156.828 75.8977 156.954 76.0454C157.08 76.193 157.178 76.3626 157.246 76.5513C157.315 76.74 157.35 76.9369 157.35 77.142C157.35 77.3826 157.306 77.6014 157.224 77.7983C157.142 77.9951 157.033 78.1592 156.899 78.2905C156.762 78.4245 156.612 78.5229 156.448 78.5913C156.284 78.6596 156.117 78.6925 155.95 78.6925C155.682 78.6925 155.439 78.6214 155.22 78.4819C155.004 78.3424 154.834 78.1538 154.711 77.9186C154.588 77.6834 154.528 77.4263 154.525 77.1502L154.528 77.1474ZM154.895 77.1365C154.895 77.3744 154.933 77.6041 155.009 77.8201C155.086 78.0362 155.206 78.2166 155.365 78.3561C155.524 78.4928 155.718 78.5639 155.95 78.5639C156.092 78.5639 156.229 78.5257 156.36 78.4518C156.492 78.378 156.606 78.2768 156.699 78.151C156.792 78.0143 156.863 77.8639 156.91 77.6943C156.959 77.5248 156.981 77.3361 156.981 77.1283C156.976 76.9751 156.965 76.8439 156.951 76.7372C156.937 76.6306 156.91 76.5239 156.866 76.42C156.809 76.2833 156.738 76.1602 156.647 76.0481C156.557 75.936 156.451 75.8512 156.33 75.7856C156.21 75.72 156.081 75.6871 155.947 75.6871C155.709 75.6871 155.513 75.761 155.354 75.9114C155.195 76.059 155.078 76.2477 155.004 76.472C154.93 76.6962 154.892 76.9177 154.892 77.1392L154.895 77.1365Z" fill="#00B2E9"/>
<path d="M155.95 78.8921C155.641 78.8921 155.362 78.8101 155.113 78.6488C154.867 78.4901 154.673 78.2741 154.536 78.0089C154.399 77.7463 154.331 77.4565 154.328 77.1475C154.328 76.915 154.366 76.6908 154.443 76.4775C154.52 76.2642 154.632 76.0728 154.768 75.906C154.911 75.7364 155.086 75.6024 155.288 75.5067C155.69 75.3153 156.19 75.3098 156.592 75.5067C156.789 75.6024 156.959 75.7391 157.104 75.906C157.243 76.07 157.353 76.2614 157.432 76.472C157.508 76.6826 157.547 76.9041 157.547 77.1338C157.547 77.4018 157.498 77.6479 157.407 77.8667C157.314 78.0854 157.191 78.2741 157.035 78.4273C156.882 78.5777 156.707 78.6925 156.521 78.7718C156.333 78.8484 156.138 78.8894 155.947 78.8894L155.95 78.8921ZM155.95 75.8868C155.764 75.8868 155.613 75.9415 155.493 76.0564C155.359 76.1821 155.261 76.338 155.198 76.5322C155.129 76.7345 155.097 76.9369 155.097 77.1365C155.097 77.3498 155.132 77.5576 155.2 77.7545C155.266 77.9405 155.365 78.0882 155.499 78.2057C155.693 78.3753 155.985 78.4355 156.264 78.2768C156.371 78.2167 156.464 78.1346 156.54 78.0307C156.617 77.9186 156.68 77.7846 156.721 77.6369C156.765 77.4865 156.784 77.3143 156.784 77.1228C156.778 76.9834 156.767 76.8603 156.756 76.7591C156.746 76.6689 156.721 76.5787 156.685 76.4912C156.639 76.3763 156.573 76.2669 156.497 76.1739C156.423 76.0837 156.338 76.0126 156.24 75.9606C156.147 75.9114 156.054 75.8868 155.952 75.8868H155.95Z" fill="#00B2E9"/>
<path d="M161.373 75.6461H161.685L161.696 78.4682H162.792V78.6077H161.373V75.6461Z" fill="#00B2E9"/>
<path d="M162.995 78.8101H161.174V75.4465H161.888L161.898 78.2686H162.995V78.8101Z" fill="#00B2E9"/>
<path d="M166.454 77.1474C166.454 76.9396 166.489 76.74 166.558 76.5485C166.626 76.3571 166.725 76.1876 166.848 76.0399C166.971 75.8922 167.124 75.7747 167.302 75.6926C167.479 75.6106 167.671 75.5668 167.876 75.5668C168.081 75.5668 168.261 75.6106 168.434 75.6953C168.606 75.7801 168.754 75.8977 168.879 76.0454C169.005 76.193 169.104 76.3626 169.172 76.5513C169.24 76.74 169.276 76.9369 169.276 77.142C169.276 77.3826 169.232 77.6014 169.15 77.7983C169.068 77.9951 168.959 78.1592 168.825 78.2905C168.688 78.4245 168.538 78.5229 168.374 78.5913C168.21 78.6596 168.043 78.6925 167.876 78.6925C167.608 78.6925 167.365 78.6214 167.146 78.4819C166.93 78.3424 166.76 78.1538 166.637 77.9186C166.514 77.6834 166.454 77.4263 166.451 77.1502L166.454 77.1474ZM166.82 77.1365C166.82 77.3744 166.859 77.6041 166.935 77.8201C167.012 78.0362 167.132 78.2166 167.291 78.3561C167.449 78.4928 167.643 78.5639 167.876 78.5639C168.018 78.5639 168.155 78.5257 168.286 78.4518C168.417 78.378 168.532 78.2768 168.625 78.151C168.718 78.0143 168.789 77.8639 168.836 77.6943C168.885 77.5248 168.907 77.3361 168.907 77.1283C168.901 76.9751 168.89 76.8439 168.877 76.7372C168.863 76.6306 168.836 76.5239 168.792 76.42C168.735 76.2833 168.663 76.1602 168.573 76.0481C168.483 75.936 168.376 75.8512 168.256 75.7856C168.136 75.72 168.007 75.6871 167.873 75.6871C167.635 75.6871 167.438 75.761 167.28 75.9114C167.121 76.059 167.004 76.2477 166.93 76.472C166.856 76.6962 166.818 76.9177 166.818 77.1392L166.82 77.1365Z" fill="#00B2E9"/>
<path d="M167.876 78.8921C167.567 78.8921 167.288 78.8101 167.039 78.6488C166.793 78.4901 166.598 78.2741 166.462 78.0089C166.325 77.7463 166.257 77.4565 166.254 77.1475C166.254 76.915 166.292 76.6908 166.369 76.4775C166.445 76.2642 166.555 76.0728 166.694 75.906C166.836 75.7364 167.011 75.6024 167.214 75.5067C167.618 75.3153 168.116 75.3098 168.521 75.5067C168.718 75.6024 168.887 75.7391 169.032 75.906C169.172 76.07 169.281 76.2614 169.36 76.472C169.437 76.6826 169.475 76.9041 169.475 77.1338C169.475 77.4018 169.426 77.6479 169.336 77.8667C169.246 78.0854 169.12 78.2741 168.964 78.4273C168.811 78.5777 168.636 78.6925 168.45 78.7718C168.261 78.8484 168.067 78.8894 167.876 78.8894V78.8921ZM167.876 75.8868C167.69 75.8868 167.539 75.9415 167.419 76.0564C167.285 76.1821 167.186 76.338 167.121 76.5322C167.055 76.7345 167.02 76.9369 167.02 77.1365C167.02 77.3498 167.055 77.5576 167.124 77.7545C167.189 77.9405 167.288 78.0882 167.422 78.2057C167.616 78.3753 167.908 78.4355 168.187 78.2768C168.294 78.2167 168.387 78.1346 168.463 78.0307C168.54 77.9186 168.603 77.7846 168.644 77.6369C168.688 77.4865 168.71 77.3143 168.71 77.1228C168.704 76.9834 168.693 76.8603 168.679 76.7591C168.669 76.6689 168.644 76.5787 168.608 76.4912C168.559 76.3763 168.496 76.2669 168.42 76.1739C168.346 76.0837 168.261 76.0126 168.163 75.9606C168.07 75.9114 167.977 75.8868 167.876 75.8868Z" fill="#00B2E9"/>
<path d="M173.107 77.1365C173.107 76.8876 173.148 76.6661 173.23 76.4692C173.312 76.2724 173.424 76.1083 173.563 75.9715C173.703 75.8348 173.859 75.7336 174.031 75.6653C174.203 75.5969 174.376 75.5614 174.551 75.5614C174.715 75.5614 174.868 75.586 175.005 75.6325C175.141 75.6789 175.264 75.7528 175.371 75.8512C175.478 75.9497 175.562 76.0727 175.625 76.2149L175.464 76.3024C175.417 76.1602 175.346 76.0426 175.248 75.9497C175.149 75.8567 175.04 75.7911 174.923 75.7473C174.805 75.7036 174.679 75.6844 174.548 75.6844C174.403 75.6844 174.266 75.7145 174.138 75.7747C174.009 75.8348 173.894 75.9278 173.793 76.0509C173.692 76.1739 173.613 76.327 173.555 76.5103C173.498 76.6935 173.47 76.9013 173.47 77.1338C173.47 77.3771 173.503 77.5877 173.569 77.7709C173.632 77.9541 173.719 78.1018 173.826 78.2221C173.933 78.3397 174.053 78.4272 174.179 78.4819C174.307 78.5366 174.436 78.5639 174.567 78.5639C174.698 78.5639 174.84 78.5339 174.994 78.4764C175.147 78.419 175.281 78.3315 175.398 78.2166V77.3935H175.691V78.2002C175.664 78.2385 175.614 78.285 175.546 78.3397C175.478 78.3944 175.39 78.4491 175.283 78.5038C175.177 78.5585 175.062 78.605 174.939 78.6405C174.816 78.6761 174.685 78.6925 174.548 78.6925C174.343 78.6897 174.154 78.6487 173.979 78.5722C173.804 78.4956 173.651 78.3862 173.52 78.244C173.388 78.1018 173.287 77.935 173.213 77.7463C173.14 77.5576 173.104 77.3552 173.104 77.1392L173.107 77.1365Z" fill="#00B2E9"/>
<path d="M174.551 78.8921C174.318 78.8894 174.099 78.8429 173.9 78.7554C173.697 78.6652 173.522 78.5394 173.372 78.378C173.224 78.2167 173.109 78.028 173.027 77.8174C172.945 77.6069 172.904 77.3772 172.904 77.1392C172.904 76.8658 172.951 76.6142 173.044 76.3954C173.137 76.1739 173.265 75.9852 173.424 75.8321C173.582 75.679 173.76 75.5614 173.954 75.4848C174.332 75.3344 174.742 75.3371 175.067 75.4493C175.231 75.504 175.379 75.5942 175.508 75.7118C175.633 75.8294 175.735 75.9743 175.808 76.1411L175.882 76.3107L175.346 76.6005L175.272 76.3708C175.237 76.2587 175.182 76.1712 175.108 76.1001C175.032 76.029 174.947 75.9743 174.854 75.9415C174.649 75.8704 174.417 75.8677 174.222 75.9606C174.121 76.0099 174.031 76.081 173.946 76.1821C173.861 76.2833 173.796 76.4146 173.744 76.5732C173.692 76.7373 173.667 76.926 173.667 77.1365C173.667 77.3553 173.697 77.5467 173.755 77.7053C173.809 77.8612 173.881 77.987 173.971 78.0882C174.058 78.1839 174.154 78.255 174.255 78.296C174.463 78.3835 174.665 78.3862 174.92 78.2878C175.021 78.2495 175.111 78.1948 175.196 78.1264V77.1912H175.89V78.2632L175.852 78.3151C175.814 78.3698 175.756 78.4245 175.672 78.4929C175.595 78.553 175.497 78.6159 175.376 78.6788C175.259 78.7417 175.128 78.791 174.994 78.8292C174.851 78.8703 174.701 78.8894 174.548 78.8894L174.551 78.8921Z" fill="#00B2E9"/>
<path d="M179.364 75.6461H179.73L180.693 76.9287L181.623 75.6461H181.762L180.767 77.0818V78.6077H180.438V77.1173L179.364 75.6461Z" fill="#00B2E9"/>
<path d="M180.969 78.8101H180.239V77.183L178.97 75.4465H179.832L180.69 76.5923L181.522 75.4465H182.148L180.969 77.1447V78.8101Z" fill="#00B2E9"/>
<path d="M99.355 66.6274L107.562 46.3121H107.622L115.678 66.6274H113.49L111.108 60.491H103.17L100.668 66.6274H99.3577H99.355ZM107.116 50.3046L103.542 59.553H110.616L107.116 50.3046Z" fill="#1D2041"/>
<path d="M118.032 53.4467H119.984V62.3232C119.984 63.149 120.132 63.8463 120.425 64.4151C120.717 64.9839 121.092 65.4051 121.548 65.6731C122.005 65.9411 122.503 66.075 123.036 66.075C125.251 66.075 126.359 64.7843 126.359 62.2029V53.4467H127.179V62.3232C127.179 63.7124 126.821 64.8281 126.107 65.6676C125.391 66.5071 124.245 66.9255 122.667 66.9255C121.863 66.9255 121.105 66.7505 120.394 66.4032C119.683 66.0559 119.115 65.5582 118.683 64.9128C118.251 64.2675 118.034 63.5073 118.034 62.6349V53.4467H118.032Z" fill="#1D2041"/>
<path d="M138.271 66.6274L133.789 59.7691C134.465 59.7691 134.935 59.7636 135.198 59.7527C135.46 59.7417 135.693 59.7171 135.889 59.6788C136.086 59.6405 136.365 59.5585 136.724 59.4409C137.32 59.2221 137.705 58.8858 137.886 58.4291C138.066 57.9724 138.154 57.4775 138.154 56.9415C138.104 55.1968 136.956 54.3245 134.714 54.3245H133.089V66.6274H131.109V53.4467H134.593C138.197 53.4467 140.035 54.6772 140.103 57.1411C140.103 58.2131 139.74 59.0116 139.015 59.5394C138.29 60.0671 137.402 60.3652 136.349 60.4336L140.415 66.6302H138.271V66.6274Z" fill="#1D2041"/>
<path d="M141.667 66.6275L144.959 55.0109C145.167 54.2671 145.441 53.7748 145.78 53.5369C146.119 53.299 146.515 53.1787 146.972 53.1787C147.508 53.2389 147.97 53.7256 148.356 54.639L152.526 66.6275H150.546L149.236 62.8729H143.652L142.594 66.6275H141.67H141.667ZM149.026 62.2029L146.792 56.0664C146.731 55.7383 146.644 55.4867 146.524 55.3062C146.365 55.2269 146.239 55.1859 146.152 55.1859C146.031 55.1859 145.914 55.2461 145.794 55.3636C145.703 55.6726 145.66 55.8449 145.66 55.8859L143.901 62.2001H149.023L149.026 62.2029Z" fill="#1D2041"/>
<path d="M153.97 60.2531C154 58.0381 154.577 56.3071 155.706 55.0546C156.833 53.8022 158.321 53.1787 160.167 53.1787C161.14 53.1787 161.991 53.4193 162.721 53.9006C163.451 54.3819 164.028 55.0136 164.457 55.7984L163.787 56.3809C163.41 55.5086 162.896 54.8605 162.245 54.4448C161.594 54.0264 160.878 53.8186 160.093 53.8186C158.791 53.8487 157.793 54.371 157.098 55.3883C156.404 56.4055 156.021 57.9642 155.953 60.0672C155.953 61.109 156.076 62.0306 156.325 62.8346C156.573 63.6385 156.91 64.2948 157.336 64.8062C157.763 65.3176 158.231 65.6895 158.736 65.9219C159.242 66.1544 159.759 66.2856 160.284 66.3157C160.314 66.2747 160.339 66.2528 160.358 66.2501C160.377 66.2446 160.394 66.2419 160.402 66.2419C161.176 66.2036 161.87 66.0176 162.486 65.684C163.101 65.3504 163.656 64.664 164.154 63.6221L164.763 64.1171C163.76 65.993 162.226 66.9283 160.161 66.9283C158.95 66.9283 157.875 66.6275 156.937 66.0258C155.999 65.4242 155.269 64.6121 154.749 63.5838C154.227 62.5556 153.967 61.4481 153.967 60.2558L153.97 60.2531Z" fill="#1D2041"/>
<path d="M167.285 44.8217H169.265V64.4972C169.265 64.9539 169.342 65.3176 169.497 65.5855C169.651 65.8535 169.99 65.9875 170.517 65.9875H171.71V66.6274H169.147C167.906 66.6274 167.285 66.1325 167.285 65.1371V44.8217Z" fill="#1D2041"/>
<path d="M173.883 55.5605C173.883 54.7073 174.078 54.1412 174.463 53.8623C174.849 53.5834 175.51 53.4439 176.443 53.4439H182.027V54.1139H177.515C176.979 54.1139 176.602 54.1467 176.383 54.2096C176.164 54.2752 176.019 54.3955 175.943 54.5733C175.869 54.751 175.83 55.0546 175.83 55.4812V59.4272H180.835V60.0671H175.83V64.6995C175.83 65.2054 175.896 65.5472 176.03 65.7195C176.164 65.8918 176.41 65.9793 176.768 65.9793H181.967V66.6192H176.323C175.428 66.6192 174.797 66.5125 174.43 66.2992C174.064 66.0859 173.878 65.6129 173.878 64.8773V55.555L173.883 55.5605Z" fill="#1D2041"/>
<path d="M183.518 60.1328C183.518 58.8803 183.777 57.7181 184.3 56.6407C184.822 55.5633 185.56 54.7155 186.52 54.1002C187.477 53.485 188.563 53.1759 189.774 53.1759C190.638 53.1759 191.467 53.3756 192.263 53.7721C193.056 54.1686 193.74 54.6964 194.311 55.35C194.883 56.0063 195.326 56.7391 195.646 57.554C195.965 58.369 196.121 59.2085 196.121 60.0699C196.11 61.5302 195.821 62.7744 195.249 63.8081C194.677 64.8418 193.925 65.6184 192.993 66.138C192.06 66.6575 191.027 66.92 189.895 66.92C188.763 66.92 187.677 66.6083 186.723 65.9875C185.768 65.3668 185.011 64.5409 184.445 63.5073C183.879 62.4736 183.572 61.3469 183.52 60.1273L183.518 60.1328ZM185.5 60.1328C185.5 60.8766 185.585 61.6177 185.754 62.3505C185.924 63.0861 186.192 63.7534 186.558 64.355C186.925 64.9566 187.373 65.4215 187.898 65.7551C188.423 66.0887 189.05 66.2528 189.774 66.2528C191.235 66.2528 192.326 65.6184 193.05 64.3468C193.775 63.0752 194.139 61.5657 194.139 59.8183C194.139 58.8858 193.986 57.956 193.677 57.0345C193.368 56.1102 192.892 55.3445 192.246 54.7319C191.601 54.1221 190.797 53.8159 189.835 53.8159C188.793 53.8159 187.942 54.1385 187.289 54.7839C186.632 55.4293 186.17 56.225 185.905 57.1739C185.637 58.1228 185.503 59.1073 185.503 60.13L185.5 60.1328Z" fill="#1D2041"/>
<path d="M198.829 66.6274V54.8905C198.829 54.4229 198.974 54.0674 199.261 53.8186C199.548 53.5697 199.925 53.4467 200.393 53.4467C201.128 53.4467 201.848 53.9881 202.553 55.071L207.618 63.5155H207.678V53.4467H208.438V66.1954C208.438 66.6821 208.274 66.9255 207.946 66.9255C207.798 66.9255 207.656 66.8462 207.522 66.6876C207.388 66.529 207.273 66.3567 207.18 66.1735C207.084 65.9903 206.989 65.8043 206.89 65.6156L200.754 55.6808C200.516 55.2542 200.352 55.0109 200.262 54.9507C200.251 54.9507 200.212 54.9425 200.144 54.9206C200.076 54.9015 200.004 54.8905 199.936 54.8905C199.728 54.8905 199.624 55.0491 199.624 55.3664V66.6247H198.834L198.829 66.6274Z" fill="#1D2041"/>
<path d="M24.5821 105.208L23.8677 106.306L24.1697 106.502L24.5821 105.87V105.208Z" fill="url(#paint0_radial_793_1689)"/>
<path d="M47.1166 22.9518L17.999 124.933L47.1166 73.2711L77.8644 125L47.1166 22.9518Z" fill="#222B72"/>
<path d="M77.0252 123.586L77.4328 123.581V123.576L47.9268 52.0166L17.9941 124.933L47.1165 73.2711L77.0252 123.586Z" fill="url(#paint1_linear_793_1689)"/>
<g opacity="0.67">
<path style="mix-blend-mode:screen" d="M61.7391 86.2807C61.8645 86.2307 59.0018 78.7523 55.345 69.5772C51.6882 60.4021 48.6221 53.0047 48.4967 53.0547C48.3712 53.1047 51.2339 60.5831 54.8907 69.7583C58.5475 78.9334 61.6136 86.3307 61.7391 86.2807Z" fill="url(#paint2_radial_793_1689)"/>
<path style="mix-blend-mode:screen" d="M60.354 82.8267C60.354 82.8267 56.2594 75.0786 54.2457 70.0251C52.232 64.9716 49.873 56.5331 49.873 56.5331C49.873 56.5331 53.9676 64.2812 55.9814 69.3347C57.9951 74.3882 60.354 82.8267 60.354 82.8267Z" fill="url(#paint3_radial_793_1689)"/>
<path style="mix-blend-mode:screen" d="M58.7387 78.78C58.7387 78.78 55.6654 73.5108 54.2749 70.0155C52.8797 66.5202 51.4893 60.5797 51.4893 60.5797C51.4893 60.5797 54.5626 65.849 55.953 69.3443C57.3483 72.8395 58.7387 78.78 58.7387 78.78Z" fill="url(#paint4_radial_793_1689)"/>
</g>
<g opacity="0.67">
<path style="mix-blend-mode:screen" d="M41.1448 69.8432C44.8016 60.668 47.6643 53.1896 47.5389 53.1396C47.4134 53.0896 44.3473 60.487 40.6905 69.6621C37.0337 78.8372 34.171 86.3156 34.2965 86.3656C34.4219 86.4156 37.488 79.0183 41.1448 69.8432Z" fill="url(#paint5_radial_793_1689)"/>
<path style="mix-blend-mode:screen" d="M35.6763 82.889C35.6763 82.889 39.7709 75.141 41.7846 70.0874C43.7983 65.0339 46.1573 56.5954 46.1573 56.5954C46.1573 56.5954 42.0627 64.3435 40.049 69.397C38.0352 74.4505 35.6763 82.889 35.6763 82.889Z" fill="url(#paint6_radial_793_1689)"/>
<path style="mix-blend-mode:screen" d="M37.2876 78.8424C37.2876 78.8424 40.3609 73.5731 41.7514 70.0779C43.1466 66.5826 44.537 60.6421 44.537 60.6421C44.537 60.6421 41.4637 65.9114 40.0733 69.4066C38.678 72.9019 37.2876 78.8424 37.2876 78.8424Z" fill="url(#paint7_radial_793_1689)"/>
</g>
<path d="M48.0999 109.753L41.8525 110.271L48.2294 99.9578L54.3473 110.818L48.0999 109.753Z" fill="#00B2E9"/>
<path d="M48.0993 39.0616C48.0658 36.2184 48.0274 33.38 47.9507 30.5368C47.7445 20.3579 47.4425 10.1789 46.8575 1.52588e-05C46.2774 10.1789 45.9705 20.3579 45.7644 30.5368C45.6924 33.38 45.6541 36.2184 45.6157 39.0616H48.0945H48.0993Z" fill="#222B72"/>
<path d="M56.26 35.2115C56.26 35.2115 54.5196 34.7513 53.647 34.7273L53.834 34.4108L56.7922 34.9862L56.2552 35.2115H56.26Z" fill="#00B2E9"/>
<path d="M94.9379 72.3457V72.0101L86.0391 72.0772C86.0391 71.7416 86.0247 71.406 86.0151 71.0656L88.4028 70.9649L88.3884 70.6293L86.0007 70.7299C85.9863 70.3943 85.9672 70.0587 85.9432 69.7231L88.3213 69.5409L88.2973 69.2053L85.9192 69.3875C85.8904 69.0518 85.8617 68.7162 85.8233 68.3806L88.1966 68.1121L88.1583 67.7765L85.785 68.045C85.7466 67.7094 85.7035 67.3785 85.6555 67.0429L88.0192 66.6929L87.9713 66.3621L85.6124 66.7121C85.5596 66.3812 85.5069 66.0456 85.4493 65.7148L89.6302 64.9477L89.5679 64.6168L87.7364 64.9525L85.387 65.384C85.3247 65.0531 85.2576 64.7223 85.1856 64.3915L87.5206 63.8785L87.4487 63.5524L85.1137 64.0655C85.0418 63.7394 84.9603 63.4086 84.8788 63.0826L87.1946 62.488L87.1131 62.162L84.8021 62.7565C84.7158 62.4305 84.6247 62.1045 84.5336 61.7832L86.8254 61.1072L86.7295 60.7859L84.4377 61.462C84.3418 61.1407 84.2411 60.8195 84.1356 60.4983L86.4035 59.7407L86.298 59.4195L84.0301 60.177C83.9247 59.8606 83.8096 59.5394 83.6945 59.2229L92.0371 56.116L91.9221 55.7996L83.5794 58.9065C83.4596 58.59 83.3349 58.2784 83.2103 57.9667L85.4206 57.0557L85.2911 56.7441L83.0808 57.6551C82.9514 57.3434 82.8171 57.0318 82.6781 56.7297L84.8548 55.742L84.7158 55.4352L82.539 56.4229C82.4 56.116 82.2561 55.8092 82.1075 55.5071L84.2459 54.4427L84.0973 54.1406L81.9589 55.205C81.8055 54.903 81.652 54.6057 81.4938 54.3084L83.5938 53.1721L83.4356 52.8749L81.3356 54.0112C81.1726 53.7139 81.0095 53.4214 80.8417 53.129L82.8986 51.9207L84.5048 50.9762L84.337 50.6885L80.6739 52.8413C80.5013 52.5488 80.3239 52.2612 80.1465 51.9783L82.1602 50.6981L81.9781 50.4152L79.9643 51.6954C79.7821 51.4125 79.5951 51.1296 79.4081 50.8515L81.3787 49.4995L81.1869 49.2214L79.2212 50.5687C79.0294 50.2906 78.8328 50.0173 78.6362 49.744L80.5541 48.3296L80.3527 48.0611L78.43 49.4803C78.2287 49.2118 78.0225 48.9433 77.8163 48.6796L79.6862 47.1933L79.4753 46.9296L77.6054 48.4159C77.3944 48.1522 77.1787 47.8933 76.9629 47.6344L83.7377 41.8665L83.5219 41.6123L76.7471 47.3803C76.5266 47.1261 76.3012 46.872 76.0759 46.6227L77.8403 45.0117L77.615 44.7624L75.8506 46.3782C75.6204 46.1289 75.3903 45.8843 75.1553 45.6446L76.8622 43.9713L76.6273 43.7316L74.9204 45.4049C74.6807 45.1651 74.4409 44.9302 74.2012 44.6953L75.8506 42.9596L75.606 42.7295L73.9567 44.4651C73.7122 44.235 73.4628 44.0049 73.2135 43.7843L74.8053 41.9911L74.556 41.7658L72.9642 43.559C72.7101 43.3384 72.456 43.1179 72.1971 42.9021L74.9108 39.6178L74.6519 39.402L73.4629 40.8404L71.9334 42.6911C71.6745 42.4802 71.4108 42.2692 71.1423 42.063L72.6046 40.1596L72.3361 39.9534L70.8738 41.8569C70.6053 41.6507 70.3368 41.4541 70.0635 41.2575L71.4635 39.3013L71.1902 39.1048L69.7902 41.061C69.5169 40.8644 69.2388 40.6774 68.9559 40.4904L70.284 38.4863L70.0059 38.2993L68.673 40.3034C68.3902 40.1164 68.1073 39.939 67.8196 39.7616L69.0806 37.7095L68.7929 37.5321L67.5319 39.5794C67.2442 39.4068 66.9518 39.2342 66.6593 39.0664L71.0608 31.3136L70.7683 31.1457L66.3668 38.9034C66.0744 38.7404 65.7771 38.5774 65.4798 38.4191L66.597 36.2856L66.2997 36.1321L65.1874 38.2657C64.8901 38.1123 64.588 37.9637 64.2812 37.815L65.3216 35.6431L65.0196 35.4992L63.9791 37.6712C63.6771 37.5274 63.3702 37.3883 63.0586 37.2493L64.0223 35.039L63.7154 34.9047L62.7517 37.1102C62.4449 36.976 62.1332 36.8465 61.8216 36.7219L62.7086 34.4828L62.3969 34.3581L61.5099 36.5972C61.1983 36.4725 60.8818 36.3575 60.5654 36.2424L61.999 32.2149L61.6825 32.0999L61.0592 33.8547L60.2537 36.1225C59.9373 36.0123 59.616 35.902 59.2948 35.8013L60.0236 33.5095L59.7023 33.4088L58.9736 35.7054C58.6523 35.6047 58.3311 35.5088 58.0051 35.4177L58.6523 33.1019L58.3263 33.0108L57.679 35.3266C57.353 35.2355 57.027 35.1492 56.7009 35.0725L57.2667 32.7375L56.9407 32.6608L56.3749 34.9958C56.0489 34.9191 55.718 34.8424 55.3872 34.7752L55.8715 32.4211L55.5406 32.354L55.0564 34.7081C54.7256 34.641 54.3947 34.5787 54.0639 34.5211L55.5454 25.7374L55.2146 25.6799L53.7331 34.4636C53.4022 34.4109 53.0666 34.3581 52.7358 34.3102L53.0522 31.9368L52.7214 31.8937L52.405 34.2718C52.0693 34.2287 51.7385 34.1903 51.4029 34.1567L51.6378 31.7738L51.3022 31.7403L51.0673 34.1232C50.7316 34.0896 50.396 34.0656 50.0604 34.0417L50.209 31.654L49.8734 31.6348L49.7248 34.0225C49.3892 34.0033 49.0535 33.9889 48.7131 33.9746L48.7803 31.5821L48.4446 31.5725L48.3775 33.9602C48.0419 33.9506 47.7063 33.9458 47.3658 33.9506L47.3323 29.6978H46.9967L47.011 31.5629L47.0302 33.9506C46.6946 33.9506 46.359 33.965 46.0186 33.9746L45.9179 31.5868L45.5822 31.6012L45.6829 33.9889C45.3473 34.0033 45.0117 34.0225 44.6761 34.0465L44.4939 31.6636L44.1582 31.6875L44.3404 34.0656C44.0048 34.0944 43.6692 34.1232 43.3336 34.1615L43.0651 31.7882L42.7295 31.8266L42.998 34.1999C42.6623 34.2383 42.3315 34.2814 41.9959 34.3294L41.6459 31.9656L41.3151 32.0136L41.6651 34.3725C41.3342 34.4252 40.9986 34.478 40.6678 34.5403L39.0568 25.7902L38.726 25.8525L40.337 34.6026C40.0061 34.665 39.6753 34.7321 39.3445 34.804L38.8315 32.469L38.5054 32.541L39.0184 34.8759C38.6924 34.9479 38.3616 35.0294 38.0356 35.1109L37.441 32.7951L37.115 32.8766L37.7095 35.1876C37.3835 35.2739 37.0575 35.365 36.7362 35.4561L36.0602 33.1643L35.7389 33.2602L36.415 35.552C36.0937 35.6479 35.7725 35.7486 35.4513 35.854L34.6937 33.5862L34.3773 33.6917L35.1348 35.9595C34.8184 36.065 34.4971 36.1801 34.1807 36.2951L32.6944 32.306L32.3779 32.4211L33.8642 36.4102C33.5478 36.5301 33.2362 36.6547 32.9245 36.7794L32.0135 34.5691L31.7019 34.6985L32.6129 36.9088C32.3012 37.0383 31.9896 37.1726 31.6875 37.3116L30.6998 35.1348L30.393 35.2739L31.3806 37.4506C31.0738 37.5897 30.7669 37.7335 30.4649 37.8822L29.4005 35.7438L29.0984 35.8924L30.1628 38.0308C29.8608 38.1842 29.5635 38.3376 29.2662 38.4959L28.1299 36.3958L27.8326 36.554L28.969 38.6541C28.6717 38.8171 28.3792 38.9801 28.0868 39.1479L23.5798 31.4766L23.2922 31.6492L27.7943 39.3205C27.5018 39.4931 27.2141 39.6705 26.9313 39.8479L25.6511 37.8342L25.3682 38.0164L26.6484 40.0301C26.3655 40.2123 26.0826 40.3993 25.8045 40.5863L24.4525 38.6157L24.1744 38.8075L25.5216 40.7781C25.2436 40.9699 24.9703 41.1665 24.697 41.363L23.2826 39.4452L23.0141 39.6466L24.4333 41.5692C24.1648 41.7706 23.8963 41.9767 23.6326 42.1829L22.1463 40.313L21.8825 40.524L23.3689 42.3939C23.1052 42.6048 22.8463 42.8206 22.5874 43.0363L19.8305 39.8L19.5763 40.0157L20.7846 41.435L22.3332 43.2521C22.0791 43.4727 21.825 43.698 21.5757 43.9233L19.9647 42.1589L19.7154 42.3843L21.3312 44.1487C21.0819 44.3788 20.8373 44.609 20.5976 44.8439L18.9243 43.137L18.6846 43.372L20.3579 45.0788C20.1181 45.3186 19.8832 45.5583 19.6483 45.798L17.9126 44.1487L17.6825 44.3932L19.4181 46.0426C19.188 46.2871 18.9578 46.5364 18.7373 46.7857L16.9441 45.1939L16.7188 45.4432L18.5119 47.035C18.2914 47.2892 18.0708 47.5433 17.8551 47.8022L10.9892 42.1302L10.7735 42.3891L17.6393 48.0659C17.4284 48.3248 17.2174 48.5885 17.0112 48.857L15.1078 47.3946L14.9016 47.6631L16.8051 49.1255C16.5989 49.394 16.4023 49.6625 16.2057 49.9358L14.2495 48.5358L14.053 48.809L16.0092 50.2091C15.8126 50.4824 15.6256 50.7604 15.4386 51.0433L13.4345 49.7152L13.2475 49.9933L15.2516 51.3262C15.0646 51.6091 14.8872 51.892 14.7098 52.1796L12.6577 50.9187L12.4803 51.2063L14.5324 52.4673C14.3598 52.755 14.1872 53.0475 14.0194 53.3399L10.3036 51.2303L10.1358 51.5228L11.7564 52.4433L13.8516 53.6324C13.6886 53.9249 13.5256 54.2221 13.3673 54.5194L11.2337 53.4023L11.0803 53.6995L13.2139 54.8119C13.0605 55.1091 12.9119 55.4112 12.7632 55.7181L10.5913 54.6776L10.4474 54.9797L12.6194 56.0201C12.4755 56.3222 12.3365 56.629 12.1975 56.9407L9.98715 55.977L9.8529 56.2838L12.0584 57.2475C11.9242 57.5544 11.7947 57.866 11.6701 58.1777L9.43097 57.2907L9.30632 57.6023L11.5454 58.4893C11.4207 58.801 11.3057 59.1174 11.1906 59.4339L2.78566 56.4468L2.67539 56.7633L11.0755 59.7503C10.9653 60.0668 10.855 60.388 10.7543 60.7092L8.46247 59.9805L8.36178 60.3017L10.6584 61.0305C10.5577 61.3517 10.4618 61.673 10.3707 61.999L8.05493 61.3517L7.96383 61.6777L10.2796 62.325C10.1885 62.651 10.1022 62.9771 10.0255 63.3031L7.69054 62.7374L7.61383 63.0634L9.94879 63.6291C9.87208 63.9552 9.79537 64.286 9.72824 64.6168L7.3741 64.1326L7.30697 64.4634L9.66112 64.9477C9.594 65.2785 9.53167 65.6093 9.47413 65.9401L5.26927 65.2305L5.21173 65.5614L7.04806 65.873L9.4118 66.271C9.35906 66.6018 9.30632 66.9374 9.25837 67.2682L6.88504 66.9518L6.84189 67.2874L9.22001 67.6039C9.17686 67.9395 9.13851 68.2703 9.10495 68.6059L6.72203 68.371L6.68846 68.7066L9.07138 68.9368C9.03782 69.2724 9.01385 69.608 8.98987 69.9436L6.60216 69.795L6.58298 70.1306L8.9707 70.2793C8.95152 70.6149 8.93713 70.9505 8.92275 71.2909L6.53025 71.2238L6.52066 71.5594L8.90837 71.6265C8.89878 71.9622 8.89398 72.2978 8.89877 72.6382L0 72.7053V73.0409L8.89877 72.9738C8.89877 73.3094 8.91316 73.6451 8.92275 73.9855L6.53504 74.0862L6.54942 74.4218L8.93713 74.3211C8.95152 74.6567 8.9707 74.9923 8.99467 75.328L6.61655 75.5102L6.64052 75.8458L9.01864 75.6636C9.04741 75.9992 9.07618 76.3348 9.11454 76.6705L6.7412 76.9389L6.77956 77.2746L9.15289 77.0061C9.19124 77.3417 9.2344 77.6725 9.28234 78.0081L6.91861 78.3582L6.96655 78.689L9.32549 78.339C9.37823 78.6698 9.43098 79.0054 9.48851 79.3362L5.30762 80.1034L5.36995 80.4342L7.20149 80.0986L9.55084 79.6671C9.61317 79.9979 9.68029 80.3287 9.75221 80.6596L7.41724 81.1726L7.48917 81.4986L9.82414 80.9856C9.89605 81.3116 9.97756 81.6424 10.0591 81.9685L7.74328 82.563L7.82479 82.889L10.1358 82.2945C10.2221 82.6206 10.3132 82.9466 10.4043 83.2678L8.11246 83.9439L8.20836 84.2651L10.5002 83.5891C10.5961 83.9103 10.6967 84.2315 10.8022 84.5528L8.53439 85.3103L8.63987 85.6316L10.9077 84.874C11.0132 85.1905 11.1283 85.5117 11.2433 85.8281L2.90073 88.935L3.01581 89.2515L11.3584 86.1446C11.4783 86.461 11.6029 86.7727 11.7276 87.0843L9.51728 87.9953L9.64674 88.3069L11.857 87.396C11.9865 87.7076 12.1207 88.0193 12.2598 88.3213L10.083 89.309L10.2221 89.6159L12.3988 88.6282C12.5379 88.935 12.6817 89.2419 12.8304 89.5392L10.692 90.6036L10.8406 90.9056L12.979 89.8412C13.1324 90.1433 13.2858 90.4405 13.4441 90.7378L11.344 91.8741L11.5022 92.1714L13.6023 91.0351C13.7653 91.3323 13.9283 91.6248 14.0961 91.9173L12.0392 93.1255L10.4331 94.0701L10.6057 94.3625L14.2687 92.2097C14.4413 92.5022 14.6187 92.7899 14.7961 93.0728L12.7824 94.3529L12.9646 94.6358L14.9783 93.3557C15.1605 93.6385 15.3475 93.9214 15.5345 94.1995L13.5639 95.5516L13.7557 95.8297L15.7263 94.4824C15.9181 94.7605 16.1146 95.0338 16.3112 95.3071L14.3934 96.7215L14.5948 96.99L16.5174 95.5708C16.7188 95.8393 16.9249 96.1077 17.1311 96.3715L15.2612 97.8578L15.4722 98.1215L17.3421 96.6352C17.553 96.8989 17.7688 97.1578 17.9845 97.4167L11.2098 103.185L11.4255 103.439L18.1955 97.6708C18.1955 97.6708 18.2003 97.642 18.2051 97.6229C18.2291 97.503 18.277 97.3975 18.3441 97.3112C15.5249 94.0077 13.2235 90.1672 11.6221 85.8665C4.2624 66.0984 14.355 44.0288 34.1232 36.6643C53.8913 29.3046 75.9608 39.3972 83.3253 59.1654C88.2782 72.4704 85.3247 86.8158 76.8382 97.0235C76.8526 97.0331 76.867 97.0379 76.8862 97.0475C77.0204 97.1146 77.1163 97.1961 77.1882 97.292L83.9774 102.902L84.1932 102.643L77.3273 96.966C77.5383 96.7071 77.7492 96.4434 77.9554 96.1749L79.8588 97.6372L80.065 97.3687L78.1616 95.9064C78.3677 95.6379 78.5643 95.3694 78.7609 95.0961L80.7171 96.4913L80.9137 96.218L78.9575 94.818C79.154 94.5447 79.341 94.2666 79.528 93.9838L81.5322 95.3119L81.7192 95.0338L79.715 93.7009C79.902 93.418 80.0794 93.1351 80.2568 92.8474L82.3089 94.1084L82.4863 93.8207L80.439 92.5598C80.6116 92.2721 80.7842 91.9796 80.952 91.6871L84.6678 93.7968L84.8356 93.5043L81.1198 91.3947C81.2828 91.1022 81.4458 90.8049 81.6041 90.5077L83.7377 91.6248L83.8911 91.3275L81.7575 90.2152C81.9109 89.9179 82.0596 89.6159 82.2082 89.309L84.3801 90.3494L84.524 90.0474L82.352 89.007C82.4959 88.7049 82.6349 88.398 82.774 88.0864L84.9843 89.0501L85.1185 88.7432L82.913 87.7795C83.0472 87.4679 83.1767 87.161 83.3014 86.8494L85.5404 87.7364L85.6651 87.4247L83.426 86.5377C83.5507 86.2261 83.6657 85.9097 83.7808 85.5932L92.181 88.5802L92.296 88.2638L83.8959 85.2768C84.0062 84.9603 84.1164 84.6391 84.2171 84.3178L86.5089 85.0418L86.6096 84.7206L84.313 83.9918C84.4137 83.6706 84.5096 83.3493 84.6007 83.0233L86.9165 83.6706L87.0076 83.3493L84.6918 82.7021C84.7829 82.376 84.8692 82.05 84.9459 81.724L87.2809 82.2897L87.3576 81.9637L85.0226 81.3979C85.0993 81.0719 85.176 80.7411 85.2432 80.4102L87.5973 80.8945L87.6645 80.5637L85.3103 80.0842C85.3774 79.7534 85.4398 79.4225 85.4973 79.0917L87.861 79.4897L89.6974 79.8013L89.7549 79.4705L85.5548 78.7609C85.6124 78.4301 85.6603 78.0944 85.7082 77.7636L88.0816 78.0801L88.1247 77.7492L85.7466 77.4328C85.7898 77.0972 85.8281 76.7663 85.8617 76.4307L88.2446 76.6657L88.2782 76.33L85.8952 76.0951C85.9288 75.7595 85.9528 75.4239 85.9767 75.0882L88.3645 75.2369L88.3836 74.9012L85.9959 74.7526C86.0151 74.417 86.0295 74.0814 86.0439 73.741L88.4364 73.8081L88.446 73.4725L86.0583 73.4053C86.0678 73.0697 86.0726 72.7341 86.0678 72.3937L94.9666 72.3265L94.9379 72.3457Z" fill="#00B2E9"/>
<path d="M47.9268 52.0166L77.4328 123.576L47.1165 22.9518L17.9941 124.933L47.9268 52.0166Z" fill="#222B72"/>
<defs>
<radialGradient id="paint0_radial_793_1689" cx="0" cy="0" r="1" gradientUnits="userSpaceOnUse" gradientTransform="translate(47.7075 69.7526) rotate(-15.12) scale(50.214 50.2141)">
<stop offset="0.65" stop-color="#8F8E8E"/>
<stop offset="0.84" stop-color="#818080"/>
<stop offset="1" stop-color="#727172"/>
</radialGradient>
<linearGradient id="paint1_linear_793_1689" x1="47.6535" y1="128.97" x2="48.8953" y2="32.1286" gradientUnits="userSpaceOnUse">
<stop offset="0.22" stop-color="#163579"/>
<stop offset="0.49" stop-color="#1A1D55"/>
</linearGradient>
<radialGradient id="paint2_radial_793_1689" cx="0" cy="0" r="1" gradientUnits="userSpaceOnUse" gradientTransform="translate(39.2736 78.5183) rotate(68.27) scale(17.8746 0.247111)">
<stop offset="0.05" stop-color="white"/>
<stop offset="0.09" stop-color="#CDEFFA"/>
<stop offset="0.19" stop-color="#5ECBF0"/>
<stop offset="0.23" stop-color="#32BDED"/>
<stop offset="0.25" stop-color="#30B7E6"/>
<stop offset="0.44" stop-color="#1F7795"/>
<stop offset="0.61" stop-color="#124455"/>
<stop offset="0.75" stop-color="#081F27"/>
<stop offset="0.85" stop-color="#02080A"/>
<stop offset="0.92"/>
</radialGradient>
<radialGradient id="paint3_radial_793_1689" cx="0" cy="0" r="1" gradientUnits="userSpaceOnUse" gradientTransform="translate(54.4471 68.3882) rotate(68.27) scale(12.2112 1.15828)">
<stop stop-color="white"/>
<stop offset="0.02" stop-color="#CDEFFA"/>
<stop offset="0.06" stop-color="#5ECBF0"/>
<stop offset="0.08" stop-color="#32BDED"/>
<stop offset="0.1" stop-color="#2CA7D1"/>
<stop offset="0.15" stop-color="#2384A6"/>
<stop offset="0.19" stop-color="#1A647E"/>
<stop offset="0.25" stop-color="#13495B"/>
<stop offset="0.31" stop-color="#0D323F"/>
<stop offset="0.37" stop-color="#081F27"/>
<stop offset="0.44" stop-color="#041115"/>
<stop offset="0.53" stop-color="#010709"/>
<stop offset="0.65" stop-color="#000102"/>
<stop offset="0.92"/>
</radialGradient>
<radialGradient id="paint4_radial_793_1689" cx="0" cy="0" r="1" gradientUnits="userSpaceOnUse" gradientTransform="translate(53.774 68.9028) rotate(68.27) scale(8.45297 1.12131)">
<stop stop-color="white"/>
<stop offset="0.04" stop-color="#CDEFFA"/>
<stop offset="0.13" stop-color="#5ECBF0"/>
<stop offset="0.17" stop-color="#32BDED"/>
<stop offset="0.22" stop-color="#2899C0"/>
<stop offset="0.28" stop-color="#1F7593"/>
<stop offset="0.35" stop-color="#16556B"/>
<stop offset="0.41" stop-color="#0F3B4A"/>
<stop offset="0.49" stop-color="#09252F"/>
<stop offset="0.56" stop-color="#05141A"/>
<stop offset="0.65" stop-color="#02090B"/>
<stop offset="0.76" stop-color="#000202"/>
<stop offset="0.92"/>
</radialGradient>
<radialGradient id="paint5_radial_793_1689" cx="0" cy="0" r="1" gradientUnits="userSpaceOnUse" gradientTransform="translate(67.0608 82.9784) rotate(111.73) scale(17.8745 0.247111)">
<stop offset="0.05" stop-color="white"/>
<stop offset="0.09" stop-color="#CDEFFA"/>
<stop offset="0.19" stop-color="#5ECBF0"/>
<stop offset="0.23" stop-color="#32BDED"/>
<stop offset="0.25" stop-color="#30B7E6"/>
<stop offset="0.44" stop-color="#1F7795"/>
<stop offset="0.61" stop-color="#124455"/>
<stop offset="0.75" stop-color="#081F27"/>
<stop offset="0.85" stop-color="#02080A"/>
<stop offset="0.92"/>
</radialGradient>
<radialGradient id="paint6_radial_793_1689" cx="0" cy="0" r="1" gradientUnits="userSpaceOnUse" gradientTransform="translate(41.3988 68.3594) rotate(111.73) scale(12.2112 1.15828)">
<stop stop-color="white"/>
<stop offset="0.02" stop-color="#CDEFFA"/>
<stop offset="0.06" stop-color="#5ECBF0"/>
<stop offset="0.08" stop-color="#32BDED"/>
<stop offset="0.1" stop-color="#2CA7D1"/>
<stop offset="0.15" stop-color="#2384A6"/>
<stop offset="0.19" stop-color="#1A647E"/>
<stop offset="0.25" stop-color="#13495B"/>
<stop offset="0.31" stop-color="#0D323F"/>
<stop offset="0.37" stop-color="#081F27"/>
<stop offset="0.44" stop-color="#041115"/>
<stop offset="0.53" stop-color="#010709"/>
<stop offset="0.65" stop-color="#000102"/>
<stop offset="0.92"/>
</radialGradient>
<radialGradient id="paint7_radial_793_1689" cx="0" cy="0" r="1" gradientUnits="userSpaceOnUse" gradientTransform="translate(42.5901 69.0841) rotate(111.73) scale(8.45297 1.12131)">
<stop stop-color="white"/>
<stop offset="0.04" stop-color="#CDEFFA"/>
<stop offset="0.13" stop-color="#5ECBF0"/>
<stop offset="0.17" stop-color="#32BDED"/>
<stop offset="0.22" stop-color="#2899C0"/>
<stop offset="0.28" stop-color="#1F7593"/>
<stop offset="0.35" stop-color="#16556B"/>
<stop offset="0.41" stop-color="#0F3B4A"/>
<stop offset="0.49" stop-color="#09252F"/>
<stop offset="0.56" stop-color="#05141A"/>
<stop offset="0.65" stop-color="#02090B"/>
<stop offset="0.76" stop-color="#000202"/>
<stop offset="0.92"/>
</radialGradient>
</defs>
</svg>
