<svg width="205" height="86" viewBox="0 0 205 86" fill="none" xmlns="http://www.w3.org/2000/svg">
<path d="M99.5046 61.2727H101.622V61.4409H100.767V64.8447H100.356V61.4409H99.5046V61.2727Z" fill="white"/>
<path d="M101.022 65.0889H100.105V61.6851H99.2544V61.032H101.876V61.6851H101.022V65.0889Z" fill="white"/>
<path d="M108.639 64.8447H106.453V61.2727H108.57V61.4409H106.855V62.935H108.484V63.1131H106.855V64.6732H108.639V64.8414V64.8447Z" fill="white"/>
<path d="M108.889 65.0889H106.203V61.032H108.824V61.6851H107.105V62.6944H108.739V63.3573H107.105V64.4359H108.889V65.0889Z" fill="white"/>
<path d="M113.411 63.0709C113.411 62.7708 113.463 62.5036 113.566 62.2661C113.669 62.0286 113.809 61.8307 113.984 61.6658C114.159 61.5009 114.355 61.3789 114.571 61.2964C114.787 61.214 115.004 61.1711 115.223 61.1711C115.429 61.1711 115.621 61.2008 115.793 61.2568C115.964 61.3129 116.119 61.402 116.252 61.5207C116.386 61.6394 116.493 61.7879 116.572 61.9594L116.369 62.0649C116.311 61.8934 116.222 61.7516 116.098 61.6394C115.975 61.5273 115.837 61.4481 115.69 61.3954C115.542 61.3426 115.384 61.3195 115.22 61.3195C115.038 61.3195 114.866 61.3558 114.705 61.4284C114.544 61.5009 114.4 61.6131 114.273 61.7615C114.146 61.9099 114.046 62.0946 113.974 62.3156C113.902 62.5366 113.868 62.7872 113.868 63.0676C113.868 63.3611 113.912 63.6151 113.991 63.8295C114.074 64.0439 114.183 64.222 114.321 64.3638C114.458 64.5056 114.609 64.6079 114.767 64.6706C114.925 64.7332 115.089 64.7629 115.257 64.7629C115.477 64.7629 115.69 64.7101 115.902 64.6079C116.112 64.5023 116.28 64.3045 116.397 64.0142L116.616 64.1395C116.554 64.2715 116.462 64.3968 116.345 64.5188C116.228 64.6409 116.074 64.7398 115.882 64.819C115.69 64.8981 115.47 64.9377 115.22 64.9377C114.969 64.9377 114.732 64.8915 114.509 64.7959C114.286 64.7002 114.091 64.5683 113.93 64.3968C113.765 64.2253 113.638 64.0274 113.545 63.7965C113.453 63.5656 113.408 63.3216 113.408 63.0643L113.411 63.0709Z" fill="white"/>
<path d="M115.223 65.188C114.939 65.188 114.664 65.1319 114.41 65.0231C114.156 64.9142 113.933 64.7625 113.748 64.5679C113.563 64.3733 113.415 64.1457 113.316 63.8884C113.216 63.6312 113.161 63.3541 113.161 63.0705C113.161 62.7407 113.22 62.4372 113.336 62.1733C113.453 61.9062 113.614 61.6786 113.813 61.4939C114.012 61.3092 114.235 61.1674 114.479 61.075C114.952 60.8936 115.467 60.8969 115.879 61.0321C116.085 61.0981 116.27 61.207 116.431 61.3488C116.589 61.4906 116.716 61.6654 116.809 61.8666L116.901 62.0711L116.232 62.4207L116.14 62.1437C116.095 62.0084 116.026 61.9029 115.934 61.8171C115.838 61.7314 115.731 61.6654 115.615 61.6258C115.357 61.5401 115.066 61.5368 114.822 61.6489C114.695 61.7083 114.582 61.794 114.475 61.9161C114.369 62.0381 114.287 62.1964 114.222 62.3877C114.156 62.5856 114.125 62.8132 114.125 63.0672C114.125 63.331 114.163 63.5586 114.235 63.7466C114.304 63.928 114.397 64.0797 114.51 64.1985C114.623 64.3139 114.743 64.3964 114.867 64.4492C115.165 64.5679 115.481 64.5481 115.79 64.3964C115.944 64.3205 116.071 64.1622 116.167 63.9313L116.277 63.6642L116.943 64.0501L116.846 64.248C116.774 64.3997 116.668 64.5481 116.531 64.6899C116.39 64.835 116.208 64.9538 115.985 65.0494C115.762 65.1418 115.508 65.188 115.223 65.188Z" fill="white"/>
<path d="M123.931 63.1168H121.924V64.8484H121.523V61.2763H121.924V62.942H123.931V61.2763H124.333V64.8484H123.931V63.1168Z" fill="white"/>
<path d="M124.583 65.0889H123.677V63.3573H122.174V65.0889H121.269V61.032H122.174V62.6944H123.677V61.032H124.583V65.0889Z" fill="white"/>
<path d="M129.562 61.2727H129.912L132.091 64.0201H132.101V61.2727H132.334V64.9437H132.324L129.795 61.7839V64.8447H129.559V61.2727H129.562Z" fill="white"/>
<path d="M132.589 65.1879H132.215L132.129 65.0922L130.05 62.4965V65.0889H129.312V61.032H130.04L131.851 63.3177V61.032H132.589V65.1879Z" fill="white"/>
<path d="M137.358 63.0835C137.358 62.8328 137.403 62.592 137.489 62.3612C137.575 62.1303 137.698 61.9258 137.853 61.7477C138.007 61.5696 138.199 61.4278 138.422 61.3288C138.645 61.2299 138.885 61.1771 139.143 61.1771C139.4 61.1771 139.626 61.2299 139.843 61.3321C140.059 61.4344 140.244 61.5762 140.402 61.7543C140.56 61.9324 140.683 62.1369 140.769 62.3645C140.855 62.592 140.899 62.8295 140.899 63.0769C140.899 63.3671 140.845 63.631 140.742 63.8685C140.639 64.106 140.501 64.3039 140.333 64.4622C140.162 64.6238 139.973 64.7425 139.767 64.825C139.561 64.9074 139.352 64.947 139.143 64.947C138.806 64.947 138.501 64.8613 138.227 64.6931C137.956 64.5248 137.743 64.2973 137.588 64.0136C137.434 63.73 137.358 63.4199 137.355 63.0868L137.358 63.0835ZM137.818 63.0703C137.818 63.3573 137.866 63.6343 137.962 63.8949C138.058 64.1554 138.209 64.3731 138.408 64.5413C138.607 64.7062 138.851 64.792 139.143 64.792C139.321 64.792 139.493 64.7458 139.657 64.6568C139.822 64.5677 139.966 64.4457 140.083 64.294C140.2 64.129 140.289 63.9476 140.347 63.7431C140.409 63.5387 140.436 63.3111 140.436 63.0604C140.429 62.8757 140.416 62.7174 140.399 62.5887C140.381 62.4601 140.347 62.3315 140.292 62.2061C140.22 62.0412 140.131 61.8928 140.018 61.7576C139.904 61.6224 139.771 61.5201 139.62 61.441C139.469 61.3618 139.307 61.3222 139.139 61.3222C138.841 61.3222 138.594 61.4113 138.395 61.5927C138.196 61.7708 138.048 61.9984 137.956 62.2688C137.863 62.5393 137.815 62.8064 137.815 63.0736L137.818 63.0703Z" fill="white"/>
<path d="M139.142 65.1878C138.754 65.1878 138.404 65.0889 138.092 64.8943C137.783 64.703 137.539 64.4424 137.368 64.1225C137.196 63.8059 137.11 63.4562 137.107 63.0835C137.107 62.8032 137.155 62.5327 137.251 62.2755C137.347 62.0182 137.488 61.7873 137.659 61.5861C137.838 61.3816 138.057 61.22 138.311 61.1046C138.816 60.8737 139.444 60.8671 139.948 61.1046C140.195 61.22 140.408 61.3849 140.59 61.5861C140.765 61.784 140.902 62.0149 141.001 62.2689C141.097 62.5228 141.145 62.79 141.145 63.067C141.145 63.3903 141.084 63.6871 140.97 63.951C140.854 64.2148 140.699 64.4424 140.504 64.6271C140.312 64.8085 140.092 64.9471 139.859 65.0427C139.622 65.1351 139.378 65.1845 139.138 65.1845L139.142 65.1878ZM139.142 61.563C138.908 61.563 138.72 61.629 138.569 61.7675C138.4 61.9192 138.277 62.1072 138.198 62.3414C138.112 62.5855 138.071 62.8296 138.071 63.0703C138.071 63.3276 138.116 63.5783 138.201 63.8158C138.284 64.04 138.407 64.2181 138.575 64.36C138.819 64.5645 139.186 64.637 139.536 64.4457C139.67 64.3732 139.787 64.2742 139.883 64.1489C139.979 64.0137 140.058 63.852 140.109 63.6739C140.164 63.4925 140.188 63.2847 140.188 63.0538C140.181 62.8856 140.168 62.7372 140.154 62.6152C140.14 62.5063 140.109 62.3975 140.065 62.2919C140.006 62.1534 139.924 62.0215 139.828 61.9093C139.735 61.8005 139.629 61.7147 139.505 61.6521C139.389 61.5927 139.272 61.563 139.145 61.563H139.142Z" fill="white"/>
<path d="M145.946 61.2727H146.337L146.35 64.6765H147.726V64.8447H145.946V61.2727Z" fill="white"/>
<path d="M147.981 65.089H145.696V61.0321H146.591L146.605 64.436H147.981V65.089Z" fill="white"/>
<path d="M152.321 63.0835C152.321 62.8328 152.366 62.592 152.451 62.3612C152.537 62.1303 152.661 61.9258 152.815 61.7477C152.969 61.5696 153.162 61.4278 153.385 61.3288C153.608 61.2299 153.848 61.1771 154.105 61.1771C154.362 61.1771 154.589 61.2299 154.805 61.3321C155.021 61.4344 155.207 61.5762 155.364 61.7543C155.522 61.9324 155.646 62.1369 155.732 62.3645C155.817 62.592 155.862 62.8295 155.862 63.0769C155.862 63.3671 155.807 63.631 155.704 63.8685C155.601 64.106 155.464 64.3039 155.296 64.4622C155.124 64.6238 154.935 64.7425 154.73 64.825C154.524 64.9074 154.314 64.947 154.105 64.947C153.769 64.947 153.464 64.8613 153.189 64.6931C152.918 64.5248 152.705 64.2973 152.551 64.0136C152.396 63.73 152.321 63.4199 152.317 63.0868L152.321 63.0835ZM152.781 63.0703C152.781 63.3573 152.829 63.6343 152.925 63.8949C153.021 64.1554 153.172 64.3731 153.371 64.5413C153.57 64.7062 153.813 64.792 154.105 64.792C154.284 64.792 154.455 64.7458 154.62 64.6568C154.785 64.5677 154.929 64.4457 155.045 64.294C155.162 64.129 155.251 63.9476 155.309 63.7431C155.371 63.5387 155.399 63.3111 155.399 63.0604C155.392 62.8757 155.378 62.7174 155.361 62.5887C155.344 62.4601 155.309 62.3315 155.255 62.2061C155.183 62.0412 155.093 61.8928 154.98 61.7576C154.867 61.6224 154.733 61.5201 154.582 61.441C154.431 61.3618 154.27 61.3222 154.102 61.3222C153.803 61.3222 153.556 61.4113 153.357 61.5927C153.158 61.7708 153.011 61.9984 152.918 62.2688C152.825 62.5393 152.777 62.8064 152.777 63.0736L152.781 63.0703Z" fill="white"/>
<path d="M154.106 65.188C153.718 65.188 153.368 65.089 153.056 64.8944C152.747 64.7031 152.503 64.4425 152.332 64.1226C152.16 63.806 152.074 63.4564 152.071 63.0836C152.071 62.8033 152.119 62.5328 152.215 62.2756C152.311 62.0183 152.448 61.7874 152.623 61.5862C152.802 61.3817 153.021 61.2201 153.275 61.1047C153.783 60.8738 154.408 60.8672 154.915 61.1047C155.162 61.2201 155.375 61.385 155.557 61.5862C155.732 61.7841 155.869 62.015 155.969 62.269C156.065 62.5229 156.113 62.7901 156.113 63.0672C156.113 63.3904 156.051 63.6872 155.938 63.9511C155.825 64.215 155.667 64.4425 155.471 64.6273C155.279 64.8087 155.059 64.9472 154.826 65.0428C154.589 65.1352 154.346 65.1847 154.106 65.1847V65.188ZM154.106 61.5631C153.872 61.5631 153.684 61.6291 153.533 61.7676C153.364 61.9194 153.241 62.1074 153.159 62.3415C153.076 62.5856 153.032 62.8297 153.032 63.0705C153.032 63.3277 153.076 63.5784 153.162 63.8159C153.244 64.0401 153.368 64.2183 153.536 64.3601C153.78 64.5646 154.147 64.6371 154.497 64.4458C154.631 64.3733 154.747 64.2743 154.843 64.149C154.939 64.0138 155.018 63.8521 155.07 63.674C155.125 63.4926 155.152 63.2848 155.152 63.054C155.145 62.8858 155.132 62.7373 155.114 62.6153C155.101 62.5065 155.07 62.3976 155.025 62.2921C154.963 62.1535 154.884 62.0216 154.788 61.9095C154.696 61.8006 154.589 61.7149 154.466 61.6522C154.349 61.5928 154.233 61.5631 154.106 61.5631Z" fill="white"/>
<path d="M160.669 63.0709C160.669 62.7708 160.721 62.5036 160.824 62.2661C160.927 62.0287 161.067 61.8308 161.242 61.6659C161.417 61.5009 161.613 61.3789 161.829 61.2965C162.045 61.214 162.261 61.1711 162.481 61.1711C162.687 61.1711 162.879 61.2008 163.051 61.2569C163.222 61.3129 163.376 61.402 163.51 61.5207C163.644 61.6395 163.75 61.7879 163.829 61.9594L163.627 62.0649C163.569 61.8934 163.479 61.7516 163.356 61.6395C163.232 61.5273 163.095 61.4482 162.948 61.3954C162.8 61.3426 162.642 61.3195 162.478 61.3195C162.296 61.3195 162.124 61.3558 161.963 61.4284C161.802 61.5009 161.657 61.6131 161.53 61.7615C161.404 61.9099 161.304 62.0946 161.232 62.3156C161.16 62.5366 161.126 62.7873 161.126 63.0676C161.126 63.3612 161.167 63.6151 161.249 63.8361C161.328 64.0571 161.438 64.2352 161.572 64.3803C161.705 64.5222 161.856 64.6277 162.014 64.6937C162.176 64.7596 162.337 64.7926 162.502 64.7926C162.666 64.7926 162.845 64.7563 163.037 64.6871C163.229 64.6178 163.397 64.5123 163.545 64.3737V63.381H163.912V64.354C163.877 64.4001 163.816 64.4562 163.73 64.5222C163.644 64.5881 163.534 64.6541 163.4 64.7201C163.267 64.786 163.123 64.8421 162.968 64.885C162.814 64.9279 162.649 64.9477 162.478 64.9477C162.22 64.9444 161.983 64.8949 161.764 64.8025C161.544 64.7102 161.352 64.5782 161.187 64.4067C161.023 64.2352 160.896 64.034 160.803 63.8064C160.71 63.5789 160.666 63.3348 160.666 63.0742L160.669 63.0709Z" fill="white"/>
<path d="M162.481 65.1882C162.189 65.1849 161.915 65.1288 161.664 65.0232C161.41 64.9144 161.191 64.7627 161.002 64.5681C160.817 64.3735 160.673 64.1459 160.57 63.8919C160.467 63.638 160.415 63.3609 160.415 63.074C160.415 62.7441 160.474 62.4407 160.59 62.1768C160.707 61.9097 160.868 61.6821 161.067 61.4974C161.266 61.3127 161.489 61.1709 161.733 61.0785C162.206 60.8971 162.721 60.9004 163.129 61.0356C163.335 61.1016 163.521 61.2104 163.682 61.3523C163.84 61.4941 163.967 61.6689 164.059 61.8701L164.152 62.0746L163.479 62.4242L163.387 62.1471C163.342 62.0119 163.274 61.9064 163.181 61.8206C163.085 61.7349 162.978 61.6689 162.862 61.6293C162.604 61.5436 162.313 61.5403 162.069 61.6524C161.942 61.7118 161.829 61.7975 161.723 61.9196C161.616 62.0416 161.534 62.1999 161.469 62.3912C161.404 62.5891 161.373 62.8167 161.373 63.0707C161.373 63.3345 161.41 63.5654 161.482 63.7567C161.551 63.9447 161.64 64.0964 161.754 64.2185C161.863 64.3339 161.983 64.4197 162.11 64.4691C162.371 64.5747 162.625 64.578 162.944 64.4592C163.071 64.4131 163.184 64.3471 163.291 64.2646V63.1366H164.162V64.4296L164.114 64.4922C164.066 64.5582 163.994 64.6242 163.888 64.7066C163.792 64.7792 163.668 64.855 163.517 64.9309C163.37 65.0068 163.205 65.0661 163.037 65.1123C162.858 65.1618 162.67 65.1849 162.478 65.1849L162.481 65.1882Z" fill="white"/>
<path d="M168.52 61.2727H168.979L170.187 62.8196L171.354 61.2727H171.529L170.28 63.0043V64.8447H169.868V63.0471L168.52 61.2727Z" fill="white"/>
<path d="M170.534 65.0889H169.618V63.1264L168.026 61.032H169.107L170.184 62.414L171.227 61.032H172.013L170.534 63.0803V65.0889Z" fill="white"/>
<path d="M68.1304 50.3949L78.4275 25.892H78.503L88.6113 50.3949H85.8663L82.8777 42.9936H72.917L69.7774 50.3949H68.1339H68.1304ZM77.8682 30.7075L73.3836 41.8623H82.2601L77.8682 30.7075Z" fill="white"/>
<path d="M91.5646 34.4976H94.0144V45.2038C94.0144 46.1999 94.1997 47.0409 94.5669 47.727C94.934 48.413 95.4041 48.9209 95.9771 49.2442C96.5501 49.5674 97.1746 49.729 97.8437 49.729C100.623 49.729 102.013 48.1722 102.013 45.0586V34.4976H103.042V45.2038C103.042 46.8793 102.592 48.225 101.697 49.2376C100.798 50.2501 99.3603 50.7548 97.3805 50.7548C96.3717 50.7548 95.4212 50.5437 94.5291 50.1248C93.637 49.7059 92.9233 49.1056 92.3812 48.3272C91.8391 47.5488 91.568 46.6319 91.568 45.5798V34.4976H91.5646Z" fill="white"/>
<path d="M116.96 50.3953L111.336 42.1232C112.184 42.1232 112.774 42.1166 113.103 42.1034C113.433 42.0902 113.724 42.0605 113.971 42.0143C114.218 41.9682 114.568 41.8692 115.018 41.7274C115.766 41.4635 116.25 41.0578 116.476 40.507C116.703 39.9562 116.812 39.3592 116.812 38.7128C116.751 36.6085 115.309 35.5563 112.496 35.5563H110.458V50.3953H107.974V34.4976H112.345C116.867 34.4976 119.173 35.9818 119.259 38.9535C119.259 40.2465 118.802 41.2096 117.893 41.8461C116.984 42.4827 115.869 42.8422 114.548 42.9247L119.65 50.3986H116.96V50.3953Z" fill="white"/>
<path d="M121.221 50.3953L125.352 36.3842C125.613 35.4871 125.956 34.8934 126.382 34.6064C126.807 34.3195 127.305 34.1744 127.878 34.1744C128.55 34.2469 129.13 34.834 129.614 35.9356L134.846 50.3953H132.362L130.719 45.8668H123.712L122.384 50.3953H121.225H121.221ZM130.455 45.0587L127.651 37.6574C127.576 37.2616 127.466 36.9581 127.315 36.7404C127.116 36.6448 126.958 36.5953 126.848 36.5953C126.697 36.5953 126.55 36.6679 126.399 36.8097C126.286 37.1824 126.231 37.3902 126.231 37.4397L124.024 45.0554H130.451L130.455 45.0587Z" fill="white"/>
<path d="M136.658 42.707C136.696 40.0354 137.42 37.9476 138.837 36.437C140.251 34.9264 142.117 34.1744 144.433 34.1744C145.655 34.1744 146.722 34.4646 147.638 35.0451C148.554 35.6256 149.278 36.3875 149.817 37.3341L148.976 38.0367C148.503 36.9845 147.858 36.2028 147.041 35.7015C146.224 35.1968 145.325 34.9462 144.341 34.9462C142.707 34.9824 141.455 35.6124 140.584 36.8394C139.712 38.0663 139.232 39.9464 139.146 42.4827C139.146 43.7394 139.3 44.8509 139.613 45.8206C139.925 46.7903 140.347 47.5819 140.882 48.1987C141.417 48.8154 142.004 49.264 142.639 49.5444C143.274 49.8247 143.922 49.983 144.581 50.0193C144.619 49.9698 144.649 49.9435 144.674 49.9402C144.698 49.9336 144.718 49.9303 144.728 49.9303C145.699 49.8841 146.571 49.6598 147.343 49.2574C148.115 48.855 148.812 48.0271 149.436 46.7705L150.201 47.3675C148.942 49.6301 147.017 50.7581 144.426 50.7581C142.906 50.7581 141.558 50.3953 140.381 49.6697C139.204 48.9441 138.288 47.9645 137.636 46.7243C136.981 45.4842 136.655 44.1484 136.655 42.7103L136.658 42.707Z" fill="white"/>
<path d="M153.364 24.0948H155.849V47.8259C155.849 48.3767 155.945 48.8154 156.14 49.1386C156.332 49.4618 156.758 49.6235 157.42 49.6235H158.916V50.3953H155.701C154.143 50.3953 153.364 49.7983 153.364 48.5977V24.0948Z" fill="white"/>
<path d="M161.644 37.0468C161.644 36.0177 161.887 35.335 162.371 34.9985C162.855 34.6621 163.685 34.4939 164.855 34.4939H171.862V35.302H166.2C165.528 35.302 165.054 35.3416 164.78 35.4174C164.505 35.4966 164.324 35.6417 164.227 35.8561C164.135 36.0705 164.087 36.4366 164.087 36.9511V41.7105H170.366V42.4823H164.087V48.0696C164.087 48.6798 164.169 49.0921 164.337 49.2999C164.505 49.5077 164.814 49.6132 165.264 49.6132H171.786V50.385H164.704C163.582 50.385 162.79 50.2564 162.33 49.9991C161.87 49.7419 161.637 49.1713 161.637 48.284V37.0402L161.644 37.0468Z" fill="white"/>
<path d="M173.732 42.5618C173.732 41.0512 174.058 39.6494 174.713 38.3499C175.368 37.0504 176.295 36.0279 177.499 35.2858C178.7 34.5437 180.062 34.171 181.582 34.171C182.667 34.171 183.706 34.4118 184.705 34.89C185.7 35.3683 186.558 36.0048 187.275 36.7931C187.992 37.5847 188.548 38.4687 188.949 39.4515C189.351 40.4344 189.546 41.447 189.546 42.486C189.532 44.2473 189.169 45.748 188.452 46.9947C187.734 48.2415 186.791 49.1782 185.621 49.8049C184.451 50.4315 183.154 50.7482 181.733 50.7482C180.313 50.7482 178.951 50.3722 177.753 49.6234C176.556 48.8747 175.605 47.8787 174.895 46.6319C174.185 45.3852 173.8 44.0263 173.735 42.5552L173.732 42.5618ZM176.219 42.5618C176.219 43.459 176.326 44.3528 176.538 45.2367C176.751 46.124 177.087 46.9287 177.547 47.6544C178.007 48.38 178.57 48.9407 179.229 49.3431C179.887 49.7455 180.673 49.9434 181.582 49.9434C183.415 49.9434 184.784 49.1782 185.693 47.6445C186.602 46.1108 187.058 44.2901 187.058 42.1825C187.058 41.0578 186.866 39.9364 186.479 38.8249C186.091 37.7101 185.494 36.7865 184.684 36.0477C183.874 35.3122 182.866 34.9428 181.658 34.9428C180.35 34.9428 179.283 35.332 178.463 36.1104C177.64 36.8888 177.06 37.8486 176.727 38.9931C176.391 40.1376 176.223 41.325 176.223 42.5585L176.219 42.5618Z" fill="white"/>
<path d="M192.943 50.3953V36.2391C192.943 35.6751 193.124 35.2463 193.485 34.9461C193.845 34.646 194.318 34.4976 194.905 34.4976C195.828 34.4976 196.731 35.1506 197.616 36.4568L203.97 46.6418H204.046V34.4976H205V49.8742C205 50.4612 204.794 50.7548 204.382 50.7548C204.197 50.7548 204.018 50.6591 203.85 50.4678C203.682 50.2765 203.538 50.0687 203.421 49.8478C203.301 49.6268 203.181 49.4025 203.058 49.1749L195.358 37.1923C195.06 36.6777 194.854 36.3842 194.741 36.3116C194.727 36.3116 194.679 36.3017 194.593 36.2753C194.507 36.2523 194.418 36.2391 194.332 36.2391C194.071 36.2391 193.941 36.4304 193.941 36.813V50.392H192.949L192.943 50.3953Z" fill="white"/>
<path d="M17.5088 71.9859L16.7793 73.2193L17.0878 73.4402L17.5088 72.7292V71.9859Z" fill="url(#paint0_radial_438_45)"/>
<path d="M33.7122 15.2697L13.1317 85.755L33.7122 50.0484L55.4449 85.8014L33.7122 15.2697Z" fill="white"/>
<path d="M55.1547 84.8745L55.4449 84.8712V84.868L34.4401 35.6296L13.1317 85.8016L33.8633 50.2543L55.1547 84.8745Z" fill="url(#paint1_linear_438_45)"/>
<g opacity="0.67">
<path style="mix-blend-mode:screen" d="M44.1815 59.1966C44.2713 59.1622 42.2227 54.0176 39.6057 47.7059C36.9888 41.3942 34.7946 36.3055 34.7048 36.3399C34.615 36.3743 36.6637 41.5188 39.2806 47.8305C41.8976 54.1422 44.0918 59.231 44.1815 59.1966Z" fill="url(#paint2_radial_438_45)"/>
<path style="mix-blend-mode:screen" d="M43.1914 56.8208C43.1914 56.8208 40.2611 51.4908 38.82 48.0144C37.3789 44.538 35.6908 38.733 35.6908 38.733C35.6908 38.733 38.621 44.0631 40.0621 47.5395C41.5032 51.0158 43.1914 56.8208 43.1914 56.8208Z" fill="url(#paint3_radial_438_45)"/>
<path style="mix-blend-mode:screen" d="M42.0349 54.0364C42.0349 54.0364 39.8355 50.4116 38.8404 48.0071C37.842 45.6027 36.8469 41.5161 36.8469 41.5161C36.8469 41.5161 39.0463 45.1409 40.0414 47.5454C41.0398 49.9498 42.0349 54.0364 42.0349 54.0364Z" fill="url(#paint4_radial_438_45)"/>
</g>
<g opacity="0.67">
<path style="mix-blend-mode:screen" d="M29.4445 47.8888C32.0615 41.5771 34.1101 36.4326 34.0204 36.3982C33.9306 36.3638 31.7364 41.4525 29.1194 47.7642C26.5025 54.0759 24.4538 59.2205 24.5436 59.2549C24.6334 59.2893 26.8276 54.2005 29.4445 47.8888Z" fill="url(#paint5_radial_438_45)"/>
<path style="mix-blend-mode:screen" d="M25.5317 56.8635C25.5317 56.8635 28.462 51.5334 29.9031 48.057C31.3442 44.5807 33.0323 38.7757 33.0323 38.7757C33.0323 38.7757 30.1021 44.1057 28.661 47.5821C27.2199 51.0585 25.5317 56.8635 25.5317 56.8635Z" fill="url(#paint6_radial_438_45)"/>
<path style="mix-blend-mode:screen" d="M26.6836 54.0793C26.6836 54.0793 28.883 50.4545 29.878 48.0501C30.8765 45.6456 31.8716 41.5591 31.8716 41.5591C31.8716 41.5591 29.6722 45.1839 28.6771 47.5883C27.6786 49.9928 26.6836 54.0793 26.6836 54.0793Z" fill="url(#paint7_radial_438_45)"/>
</g>
<path d="M34.2882 75.5649L29.911 75.9463L34.3789 68.3504L38.6654 76.3489L34.2882 75.5649Z" fill="white"/>
<path d="M34.2884 26.9038C34.2687 24.9456 34.2461 22.9906 34.2011 21.0323C34.08 14.0216 33.9025 7.01078 33.5589 0C33.218 7.01078 33.0378 14.0216 32.9166 21.0323C32.8744 22.9906 32.8518 24.9456 32.8293 26.9038H34.2856H34.2884Z" fill="white"/>
<path d="M40.4837 23.9954C40.4837 23.9954 39.2726 23.5774 38.6654 23.5556L38.7955 23.2682L40.854 23.7907L40.4804 23.9954H40.4837Z" fill="white"/>
<path d="M67.8265 49.743V49.5108L61.4689 49.5572C61.4689 49.325 61.4586 49.0927 61.4518 48.8572L63.1576 48.7875L63.1474 48.5552L61.4415 48.6249C61.4312 48.3927 61.4175 48.1604 61.4004 47.9282L63.0994 47.8021L63.0823 47.5699L61.3833 47.6959C61.3627 47.4637 61.3422 47.2314 61.3148 46.9992L63.0103 46.8134L62.9829 46.5812L61.2874 46.767C61.26 46.5347 61.2291 46.3058 61.1949 46.0735L62.8836 45.8313L62.8493 45.6024L61.164 45.8446C61.1264 45.6157 61.0887 45.3834 61.0476 45.1545L64.0345 44.6237L63.99 44.3947L62.6815 44.627L61.0031 44.9256C60.9585 44.6967 60.9106 44.4677 60.8592 44.2388L62.5274 43.8838L62.476 43.6582L60.8078 44.0132C60.7564 43.7876 60.6982 43.5587 60.64 43.3331L62.2944 42.9217L62.2362 42.696L60.5852 43.1074C60.5235 42.8818 60.4584 42.6562 60.3933 42.4339L62.0307 41.9661L61.9622 41.7438L60.3248 42.2116C60.2563 41.9894 60.1844 41.7671 60.109 41.5448L61.7292 41.0206L61.6539 40.7983L60.0337 41.3225C59.9583 41.1035 59.8761 40.8812 59.7939 40.6622L65.7541 38.5123L65.6719 38.2934L59.7117 40.4433C59.626 40.2243 59.537 40.0086 59.4479 39.793L61.027 39.1626L60.9345 38.947L59.3554 39.5773C59.2629 39.3617 59.167 39.146 59.0677 38.937L60.6228 38.2535L60.5235 38.0412L58.9684 38.7247C58.869 38.5123 58.7663 38.3 58.6601 38.091L60.1878 37.3544L60.0816 37.1454L58.5539 37.882C58.4443 37.6729 58.3347 37.4672 58.2216 37.2615L59.7219 36.4752L59.6089 36.2695L58.1086 37.0558C57.9921 36.8501 57.8757 36.6477 57.7558 36.4454L59.2253 35.6093L60.3728 34.9557L60.2529 34.7566L57.6359 36.2463C57.5126 36.0439 57.3858 35.8448 57.2591 35.6491L58.6978 34.7632L58.5676 34.5675L57.1289 35.4533C56.9988 35.2576 56.8652 35.0618 56.7316 34.8694L58.1394 33.9338L58.0024 33.7414L56.598 34.6737C56.461 34.4812 56.3205 34.2921 56.1801 34.103L57.5502 33.1243L57.4064 32.9385L56.0328 33.9205C55.8889 33.7347 55.7416 33.5489 55.5943 33.3665L56.9302 32.338L56.7795 32.1555L55.4436 33.184C55.2929 33.0015 55.1388 32.8223 54.9846 32.6432L59.8247 28.6519L59.6706 28.4761L54.8305 32.4673C54.6729 32.2915 54.5119 32.1157 54.3509 31.9431L55.6115 30.8284L55.4505 30.6558L54.1899 31.7739C54.0255 31.6014 53.8611 31.4322 53.6932 31.2663L54.9127 30.1084L54.7448 29.9425L53.5254 31.1004C53.3541 30.9345 53.1828 30.772 53.0116 30.6094L54.1899 29.4084L54.0152 29.2491L52.8369 30.4501C52.6622 30.2909 52.4841 30.1316 52.3059 29.979L53.4432 28.7382L53.2651 28.5822L52.1278 29.8231C51.9463 29.6705 51.7647 29.5178 51.5798 29.3685L53.5185 27.0959L53.3336 26.9466L52.4841 27.9419L51.3914 29.2226C51.2064 29.0766 51.018 28.9306 50.8262 28.7879L51.8709 27.4708L51.6791 27.3281L50.6343 28.6453C50.4425 28.5026 50.2507 28.3666 50.0555 28.2305L51.0557 26.8769L50.8604 26.7409L49.8602 28.0945C49.665 27.9585 49.4663 27.8291 49.2642 27.6997L50.213 26.3129L50.0143 26.1835L49.0621 27.5703C48.86 27.4409 48.6579 27.3182 48.4524 27.1954L49.3532 25.7754L49.1477 25.6526L48.2468 27.0693C48.0413 26.9499 47.8324 26.8304 47.6234 26.7143L50.7679 21.3495L50.559 21.2334L47.4145 26.6015C47.2055 26.4887 46.9931 26.3759 46.7808 26.2664L47.5789 24.79L47.3665 24.6838L46.5718 26.1603C46.3594 26.0541 46.1436 25.9512 45.9244 25.8484L46.6677 24.3454L46.4519 24.2459L45.7086 25.7489C45.4928 25.6493 45.2736 25.5531 45.0509 25.4569L45.7394 23.9274L45.5202 23.8345L44.8317 25.3607C44.6125 25.2678 44.3898 25.1782 44.1672 25.0919L44.8009 23.5425L44.5782 23.4563L43.9445 25.0057C43.7219 24.9194 43.4958 24.8398 43.2697 24.7602L44.2939 21.9732L44.0678 21.8936L43.6225 23.1079L43.0471 24.6772C42.821 24.6009 42.5915 24.5246 42.362 24.4549L42.8827 22.869L42.6532 22.7994L42.1325 24.3886C41.903 24.3189 41.6735 24.2525 41.4406 24.1895L41.903 22.587L41.6701 22.524L41.2076 24.1265C40.9747 24.0634 40.7418 24.0037 40.5088 23.9506L40.9131 22.3349L40.6801 22.2818L40.2759 23.8975C40.043 23.8445 39.8066 23.7914 39.5703 23.7449L39.9163 22.1159L39.6799 22.0694L39.3339 23.6985C39.0976 23.652 38.8612 23.6089 38.6249 23.5691L39.6833 17.4909L39.447 17.4511L38.3885 23.5293C38.1522 23.4928 37.9124 23.4563 37.676 23.4231L37.9021 21.7808L37.6658 21.7509L37.4397 23.3966C37.1999 23.3667 36.9636 23.3401 36.7238 23.3169L36.8916 21.668L36.6518 21.6448L36.484 23.2937C36.2442 23.2705 36.0044 23.2539 35.7647 23.2373L35.8709 21.585L35.6311 21.5718L35.5249 23.224C35.2851 23.2108 35.0453 23.2008 34.8021 23.1908L34.8501 21.5353L34.6103 21.5286L34.5623 23.1809C34.3226 23.1743 34.0828 23.1709 33.8396 23.1743L33.8156 20.2314H33.5758L33.5861 21.522L33.5998 23.1743C33.36 23.1743 33.1202 23.1842 32.877 23.1908L32.8051 21.5386L32.5653 21.5485L32.6373 23.2008C32.3975 23.2108 32.1577 23.224 31.9179 23.2406L31.7878 21.5917L31.548 21.6083L31.6782 23.2539C31.4384 23.2738 31.1986 23.2937 30.9588 23.3202L30.767 21.6779L30.5272 21.7045L30.719 23.3468C30.4793 23.3733 30.2429 23.4032 30.0031 23.4364L29.7531 21.8007L29.5167 21.8339L29.7668 23.4662C29.5304 23.5027 29.2906 23.5392 29.0543 23.5823L27.9034 17.5274L27.667 17.5705L28.8179 23.6255C28.5816 23.6686 28.3452 23.7151 28.1089 23.7648L27.7424 22.1491L27.5094 22.1988L27.8759 23.8146C27.643 23.8644 27.4067 23.9208 27.1737 23.9772L26.749 22.3747L26.5161 22.4311L26.9408 24.0302C26.7079 24.09 26.475 24.153 26.2455 24.216L25.7625 22.6301L25.533 22.6965L26.016 24.2824C25.7865 24.3488 25.557 24.4184 25.3275 24.4914L24.7862 22.9221L24.5602 22.9951L25.1014 24.5644C24.8753 24.6374 24.6458 24.717 24.4197 24.7967L23.3578 22.0363L23.1318 22.1159L24.1936 24.8763C23.9676 24.9592 23.7449 25.0455 23.5223 25.1317L22.8714 23.6023L22.6488 23.6918L23.2996 25.2213C23.077 25.3109 22.8543 25.4038 22.6385 25.5L21.9329 23.9937L21.7136 24.09L22.4193 25.5962C22.2001 25.6924 21.9808 25.792 21.765 25.8948L21.0046 24.4151L20.7888 24.518L21.5492 25.9977C21.3334 26.1039 21.1211 26.21 20.9087 26.3195L20.0969 24.8663L19.8845 24.9758L20.6963 26.429C20.4839 26.5418 20.275 26.6546 20.066 26.7707L16.8461 21.4623L16.6406 21.5817L19.8571 26.8902C19.6481 27.0096 19.4426 27.1324 19.2405 27.2551L18.3259 25.8617L18.1238 25.9877L19.0384 27.3812C18.8363 27.5073 18.6342 27.6367 18.4355 27.7661L17.4696 26.4025L17.2709 26.5352L18.2334 27.8988C18.0348 28.0315 17.8395 28.1675 17.6443 28.3035L16.6338 26.9764L16.4419 27.1158L17.4559 28.4462C17.264 28.5856 17.0722 28.7282 16.8838 28.8709L15.8219 27.5769L15.6336 27.7229L16.6954 29.0169C16.507 29.1628 16.3221 29.3121 16.1371 29.4614L14.1675 27.2219L13.9859 27.3712L14.8491 28.3533L15.9555 29.6107C15.774 29.7634 15.5924 29.9193 15.4143 30.0752L14.2634 28.8543L14.0853 29.0102L15.2396 30.2312C15.0615 30.3904 14.8868 30.5497 14.7155 30.7122L13.5201 29.5311L13.3488 29.6937L14.5443 30.8748C14.373 31.0407 14.2052 31.2066 14.0373 31.3725L12.7973 30.2312L12.6329 30.4004L13.8729 31.5417C13.7085 31.7109 13.5441 31.8834 13.3865 32.0559L12.1054 30.9544L11.9444 31.127L13.2255 32.2285C13.0679 32.4043 12.9104 32.5802 12.7562 32.7593L7.85103 28.8344L7.69689 29.0135L12.6021 32.9418C12.4514 33.1209 12.3006 33.3034 12.1533 33.4892L10.7935 32.4773L10.6462 32.6631L12.006 33.675C11.8588 33.8608 11.7183 34.0466 11.5779 34.2357L10.1803 33.2669L10.0399 33.456L11.4374 34.4248C11.297 34.6139 11.1634 34.8064 11.0298 35.0021L9.59799 34.0831L9.4644 34.2755L10.8962 35.1979C10.7626 35.3936 10.6359 35.5894 10.5091 35.7884L9.04307 34.9159L8.91633 35.1149L10.3824 35.9875C10.2591 36.1866 10.1358 36.389 10.0159 36.5913L7.3612 35.1315L7.24131 35.3339L8.3991 35.9709L9.896 36.7937C9.77953 36.9961 9.66307 37.2018 9.55003 37.4075L8.02573 36.6345L7.91611 36.8402L9.44042 37.6099C9.3308 37.8156 9.22462 38.0246 9.11843 38.237L7.56672 37.517L7.46396 37.726L9.01567 38.446C8.91291 38.655 8.81357 38.8673 8.71423 39.083L7.13512 38.4161L7.03921 38.6285L8.6149 39.2953C8.51899 39.5077 8.4265 39.7233 8.33744 39.939L6.73777 39.3252L6.64871 39.5408L8.24838 40.1546C8.15932 40.3703 8.07711 40.5893 7.9949 40.8082L1.99016 38.7413L1.91138 38.9602L7.91269 41.0272C7.8339 41.2462 7.75512 41.4685 7.68319 41.6908L6.04584 41.1865L5.97391 41.4087L7.61468 41.9131C7.54274 42.1353 7.47424 42.3576 7.40915 42.5832L5.75468 42.1353L5.6896 42.3609L7.34407 42.8088C7.27899 43.0345 7.21733 43.2601 7.16252 43.4857L5.49435 43.0942L5.43955 43.3198L7.10772 43.7113C7.05291 43.9369 6.99811 44.1658 6.95015 44.3947L5.26828 44.0597L5.22032 44.2886L6.9022 44.6237C6.85424 44.8526 6.80971 45.0815 6.7686 45.3104L3.76452 44.8194L3.72342 45.0483L5.03535 45.264L6.72407 45.5394C6.68639 45.7683 6.64871 46.0005 6.61446 46.2295L4.91888 46.0105L4.88806 46.2427L6.58705 46.4617C6.55622 46.694 6.52882 46.9229 6.50485 47.1551L4.80242 46.9926L4.77844 47.2248L6.48087 47.3841C6.45689 47.6163 6.43976 47.8485 6.42264 48.0808L4.71678 47.9779L4.70308 48.2102L6.40894 48.313C6.39523 48.5453 6.38496 48.7775 6.37468 49.0131L4.66541 48.9666L4.65855 49.1989L6.3644 49.2453C6.35755 49.4776 6.35413 49.7098 6.35755 49.9454L0 49.9918V50.2241L6.35755 50.1776C6.35755 50.4099 6.36783 50.6421 6.37468 50.8777L4.66883 50.9474L4.67911 51.1796L6.38496 51.1099C6.39523 51.3422 6.40894 51.5744 6.42606 51.8067L4.72706 51.9327L4.74419 52.165L6.44319 52.0389C6.46374 52.2711 6.4843 52.5034 6.5117 52.7356L4.81612 52.9214L4.84352 53.1537L6.5391 52.9679C6.5665 53.2001 6.59733 53.429 6.63159 53.6613L4.94286 53.9035L4.97711 54.1324L6.66241 53.8902C6.70009 54.1191 6.73778 54.3514 6.77888 54.5803L3.79193 55.1112L3.83645 55.3401L5.14496 55.1078L6.82341 54.8092C6.86794 55.0382 6.91589 55.2671 6.96727 55.496L5.2991 55.851L5.35049 56.0766L7.01866 55.7216C7.07004 55.9472 7.12827 56.1762 7.1865 56.4018L5.53203 56.8132L5.59026 57.0388L7.24131 56.6274C7.30296 56.853 7.36805 57.0786 7.43313 57.3009L5.79579 57.7687L5.8643 57.991L7.50164 57.5232C7.57015 57.7455 7.64208 57.9678 7.71744 58.1901L6.09722 58.7143L6.17258 58.9366L7.7928 58.4123C7.86816 58.6313 7.95037 58.8536 8.03258 59.0726L2.07237 61.2225L2.15458 61.4415L8.11479 59.2916C8.20042 59.5105 8.28948 59.7262 8.37854 59.9418L6.79943 60.5722L6.89192 60.7879L8.47103 60.1575C8.56351 60.3731 8.65943 60.5888 8.75876 60.7978L7.20363 61.4813L7.30297 61.6936L8.8581 61.0102C8.95744 61.2225 9.0602 61.4348 9.16639 61.6405L7.63866 62.3771L7.74484 62.5861L9.27258 61.8496C9.38219 62.0586 9.4918 62.2643 9.60484 62.47L8.10451 63.2563L8.21755 63.462L9.71788 62.6757C9.83434 62.8814 9.95081 63.0838 10.0707 63.2861L8.60119 64.1222L7.45369 64.7758L7.577 64.9782L10.194 63.4885C10.3173 63.6909 10.4441 63.89 10.5708 64.0857L9.13213 64.9716L9.2623 65.1673L10.701 64.2815C10.8311 64.4772 10.9647 64.673 11.0983 64.8654L9.69048 65.801L9.82749 65.9935L11.2353 65.0612C11.3723 65.2536 11.5128 65.4427 11.6532 65.6318L10.2831 66.6106L10.4269 66.7964L11.8005 65.8143C11.9444 66.0001 12.0917 66.1859 12.239 66.3684L10.9031 67.3969L11.0538 67.5794L12.3897 66.5508C12.5404 66.7333 12.6946 66.9125 12.8487 67.0916L8.0086 71.0829L8.16274 71.2588L12.9994 67.2675C12.9994 67.2675 13.0028 67.2476 13.0063 67.2343C13.0234 67.1514 13.0576 67.0784 13.1056 67.0186C11.0915 64.7327 9.44727 62.0752 8.30319 59.0991C3.04519 45.4199 10.2557 30.1482 24.3786 25.0521C38.5016 19.9593 54.2687 26.9433 59.5301 40.6224C63.0686 49.8293 60.9585 59.756 54.8955 66.8196C54.9058 66.8262 54.9161 66.8295 54.9298 66.8362C55.0257 66.8826 55.0942 66.939 55.1456 67.0054L59.996 70.8872L60.1501 70.708L55.2449 66.7798C55.3957 66.6006 55.5464 66.4181 55.6937 66.2323L57.0536 67.2443L57.2009 67.0585L55.841 66.0465C55.9883 65.8607 56.1287 65.6749 56.2691 65.4858L57.6667 66.4513L57.8071 66.2622L56.4096 65.2934C56.55 65.1043 56.6836 64.9119 56.8172 64.7161L58.249 65.6351L58.3826 65.4427L56.9508 64.5204C57.0844 64.3246 57.2111 64.1289 57.3379 63.9298L58.8039 64.8024L58.9307 64.6033L57.468 63.7307C57.5913 63.5317 57.7147 63.3293 57.8346 63.1269L60.4892 64.5867L60.6091 64.3843L57.9544 62.9245C58.0709 62.7221 58.1874 62.5164 58.3004 62.3107L59.8247 63.0838L59.9343 62.8781L58.41 62.1083C58.5196 61.9026 58.6258 61.6936 58.732 61.4813L60.2837 62.2012L60.3865 61.9922L58.8348 61.2723C58.9375 61.0632 59.0369 60.8509 59.1362 60.6353L60.7153 61.3021L60.8112 61.0898L59.2355 60.4229C59.3315 60.2073 59.4239 59.9949 59.513 59.7793L61.1127 60.3931L61.2017 60.1774L59.6021 59.5636C59.6911 59.348 59.7733 59.129 59.8555 58.91L65.8568 60.977L65.9391 60.758L59.9377 58.691C60.0165 58.4721 60.0953 58.2498 60.1673 58.0275L61.8046 58.5285L61.8765 58.3062L60.2358 57.8019C60.3077 57.5796 60.3762 57.3573 60.4413 57.1317L62.0958 57.5796L62.1608 57.3573L60.5064 56.9094C60.5714 56.6838 60.6331 56.4582 60.6879 56.2326L62.3561 56.6241L62.4109 56.3985L60.7427 56.007C60.7975 55.7814 60.8523 55.5524 60.9003 55.3235L62.5822 55.6586L62.6301 55.4297L60.9482 55.0979C60.9962 54.869 61.0407 54.64 61.0818 54.4111L62.7706 54.6865L64.0825 54.9021L64.1236 54.6732L61.1229 54.1822C61.164 53.9533 61.1983 53.721 61.2325 53.4921L62.9281 53.7111L62.959 53.4821L61.26 53.2632C61.2908 53.0309 61.3182 52.802 61.3422 52.5697L63.0446 52.7323L63.0686 52.5001L61.3661 52.3375C61.3901 52.1053 61.4072 51.873 61.4244 51.6408L63.1302 51.7436L63.1439 51.5114L61.4381 51.4085C61.4518 51.1763 61.4621 50.944 61.4723 50.7085L63.1816 50.7549L63.1885 50.5227L61.4826 50.4762C61.4895 50.244 61.4929 50.0117 61.4895 49.7762L67.847 49.7297L67.8265 49.743Z" fill="white"/>
<path d="M34.4401 35.3714L55.4449 84.863L33.8633 15.2697L13.1317 85.8014L34.4401 35.3714Z" fill="white"/>
<defs>
<radialGradient id="paint0_radial_438_45" cx="0" cy="0" r="1" gradientTransform="matrix(49.503 -14.7139 13.3755 54.4564 41.1243 32.1564)" gradientUnits="userSpaceOnUse">
<stop offset="0.65" stop-color="#8F8E8E"/>
<stop offset="0.84" stop-color="#818080"/>
<stop offset="1" stop-color="#727172"/>
</radialGradient>
<linearGradient id="paint1_linear_438_45" x1="34.2456" y1="88.5794" x2="35.0715" y2="21.9444" gradientUnits="userSpaceOnUse">
<stop offset="0.22" stop-color="white"/>
<stop offset="0.49" stop-color="white"/>
</linearGradient>
<radialGradient id="paint2_radial_438_45" cx="0" cy="0" r="1" gradientTransform="matrix(4.73592 11.4224 -0.164275 0.0629365 28.1044 53.8566)" gradientUnits="userSpaceOnUse">
<stop offset="0.05" stop-color="white"/>
<stop offset="0.09" stop-color="#CDEFFA"/>
<stop offset="0.19" stop-color="#5ECBF0"/>
<stop offset="0.23" stop-color="#32BDED"/>
<stop offset="0.25" stop-color="#30B7E6"/>
<stop offset="0.44" stop-color="#1F7795"/>
<stop offset="0.61" stop-color="#124455"/>
<stop offset="0.75" stop-color="#081F27"/>
<stop offset="0.85" stop-color="#02080A"/>
<stop offset="0.92"/>
</radialGradient>
<radialGradient id="paint3_radial_438_45" cx="0" cy="0" r="1" gradientTransform="matrix(3.2354 7.80336 -0.770005 0.295001 38.9641 46.8883)" gradientUnits="userSpaceOnUse">
<stop stop-color="white"/>
<stop offset="0.02" stop-color="#CDEFFA"/>
<stop offset="0.06" stop-color="#5ECBF0"/>
<stop offset="0.08" stop-color="#32BDED"/>
<stop offset="0.1" stop-color="#2CA7D1"/>
<stop offset="0.15" stop-color="#2384A6"/>
<stop offset="0.19" stop-color="#1A647E"/>
<stop offset="0.25" stop-color="#13495B"/>
<stop offset="0.31" stop-color="#0D323F"/>
<stop offset="0.37" stop-color="#081F27"/>
<stop offset="0.44" stop-color="#041115"/>
<stop offset="0.53" stop-color="#010709"/>
<stop offset="0.65" stop-color="#000102"/>
<stop offset="0.92"/>
</radialGradient>
<radialGradient id="paint4_radial_438_45" cx="0" cy="0" r="1" gradientTransform="matrix(2.23964 5.40172 -0.74543 0.285586 38.482 47.2417)" gradientUnits="userSpaceOnUse">
<stop stop-color="white"/>
<stop offset="0.04" stop-color="#CDEFFA"/>
<stop offset="0.13" stop-color="#5ECBF0"/>
<stop offset="0.17" stop-color="#32BDED"/>
<stop offset="0.22" stop-color="#2899C0"/>
<stop offset="0.28" stop-color="#1F7593"/>
<stop offset="0.35" stop-color="#16556B"/>
<stop offset="0.41" stop-color="#0F3B4A"/>
<stop offset="0.49" stop-color="#09252F"/>
<stop offset="0.56" stop-color="#05141A"/>
<stop offset="0.65" stop-color="#02090B"/>
<stop offset="0.76" stop-color="#000202"/>
<stop offset="0.92"/>
</radialGradient>
<radialGradient id="paint5_radial_438_45" cx="0" cy="0" r="1" gradientTransform="matrix(-4.73591 11.4224 0.164275 0.0629365 47.991 56.9247)" gradientUnits="userSpaceOnUse">
<stop offset="0.05" stop-color="white"/>
<stop offset="0.09" stop-color="#CDEFFA"/>
<stop offset="0.19" stop-color="#5ECBF0"/>
<stop offset="0.23" stop-color="#32BDED"/>
<stop offset="0.25" stop-color="#30B7E6"/>
<stop offset="0.44" stop-color="#1F7795"/>
<stop offset="0.61" stop-color="#124455"/>
<stop offset="0.75" stop-color="#081F27"/>
<stop offset="0.85" stop-color="#02080A"/>
<stop offset="0.92"/>
</radialGradient>
<radialGradient id="paint6_radial_438_45" cx="0" cy="0" r="1" gradientTransform="matrix(-3.2354 7.80336 0.770006 0.295001 29.6269 46.8683)" gradientUnits="userSpaceOnUse">
<stop stop-color="white"/>
<stop offset="0.02" stop-color="#CDEFFA"/>
<stop offset="0.06" stop-color="#5ECBF0"/>
<stop offset="0.08" stop-color="#32BDED"/>
<stop offset="0.1" stop-color="#2CA7D1"/>
<stop offset="0.15" stop-color="#2384A6"/>
<stop offset="0.19" stop-color="#1A647E"/>
<stop offset="0.25" stop-color="#13495B"/>
<stop offset="0.31" stop-color="#0D323F"/>
<stop offset="0.37" stop-color="#081F27"/>
<stop offset="0.44" stop-color="#041115"/>
<stop offset="0.53" stop-color="#010709"/>
<stop offset="0.65" stop-color="#000102"/>
<stop offset="0.92"/>
</radialGradient>
<radialGradient id="paint7_radial_438_45" cx="0" cy="0" r="1" gradientTransform="matrix(-2.23964 5.40172 0.74543 0.285586 30.4783 47.3665)" gradientUnits="userSpaceOnUse">
<stop stop-color="white"/>
<stop offset="0.04" stop-color="#CDEFFA"/>
<stop offset="0.13" stop-color="#5ECBF0"/>
<stop offset="0.17" stop-color="#32BDED"/>
<stop offset="0.22" stop-color="#2899C0"/>
<stop offset="0.28" stop-color="#1F7593"/>
<stop offset="0.35" stop-color="#16556B"/>
<stop offset="0.41" stop-color="#0F3B4A"/>
<stop offset="0.49" stop-color="#09252F"/>
<stop offset="0.56" stop-color="#05141A"/>
<stop offset="0.65" stop-color="#02090B"/>
<stop offset="0.76" stop-color="#000202"/>
<stop offset="0.92"/>
</radialGradient>
</defs>
</svg>
